<?xml version="1.0" encoding="UTF-8" standalone="no"?>
<!-- Created with Inkscape (http://www.inkscape.org/) -->

<svg
   xmlns:dc="http://purl.org/dc/elements/1.1/"
   xmlns:cc="http://creativecommons.org/ns#"
   xmlns:rdf="http://www.w3.org/1999/02/22-rdf-syntax-ns#"
   xmlns:svg="http://www.w3.org/2000/svg"
   xmlns="http://www.w3.org/2000/svg"
   xmlns:sodipodi="http://sodipodi.sourceforge.net/DTD/sodipodi-0.dtd"
   xmlns:inkscape="http://www.inkscape.org/namespaces/inkscape"
   width="210mm"
   height="297mm"
   viewBox="0 0 744.09448819 1052.3622047"
   id="svg2"
   version="1.1"
   inkscape:version="0.91 r13725"
   inkscape:export-filename="/Users/larsaeschlimann/Documents/02_BFH/09_Informatik/Softwareprojekt_SuperTeacher/SuperTeacher/assets/graphics/backgrounds/Door.png"
   inkscape:export-xdpi="300"
   inkscape:export-ydpi="300"
   sodipodi:docname="Door.svg">
  <defs
     id="defs4" />
  <sodipodi:namedview
     id="base"
     pagecolor="#ffffff"
     bordercolor="#666666"
     borderopacity="1.0"
     inkscape:pageopacity="0.0"
     inkscape:pageshadow="2"
     inkscape:zoom="1.1851964"
     inkscape:cx="318.50971"
     inkscape:cy="425.80941"
     inkscape:document-units="px"
     inkscape:current-layer="layer1"
     showgrid="false"
     inkscape:window-width="1440"
     inkscape:window-height="851"
     inkscape:window-x="0"
     inkscape:window-y="1"
     inkscape:window-maximized="1" />
  <metadata
     id="metadata7">
    <rdf:RDF>
      <cc:Work
         rdf:about="">
        <dc:format>image/svg+xml</dc:format>
        <dc:type
           rdf:resource="http://purl.org/dc/dcmitype/StillImage" />
        <dc:title></dc:title>
      </cc:Work>
    </rdf:RDF>
  </metadata>
  <g
     inkscape:label="Ebene 1"
     inkscape:groupmode="layer"
     id="layer1">
    <g
       id="g4231"
       transform="translate(-8.3500558,-63.221851)"
       inkscape:export-xdpi="300"
       inkscape:export-ydpi="300">
      <path
         inkscape:connector-curvature="0"
         id="path4219"
         d="m 550.96402,851.69067 c -1.3121,-0.33162 -5.60641,-1.64988 -9.54293,-2.92947 -3.93652,-1.2796 -11.72001,-3.64847 -17.29666,-5.26413 -5.57664,-1.61568 -16.84922,-5.02644 -25.05017,-7.57947 -8.20094,-2.55304 -21.35228,-6.36228 -29.22519,-8.46501 -17.81982,-4.75939 -32.61267,-9.84869 -57.85396,-19.90398 -10.82525,-4.31242 -20.62165,-7.78943 -21.76979,-7.72669 -1.14813,0.0628 -2.08751,-0.30317 -2.08751,-0.81316 0,-2.35337 -8.11324,-4.0963 -26.24303,-5.63768 -16.26851,-1.38315 -29.09601,-1.44603 -73.95764,-0.36252 -29.85145,0.72098 -59.91165,1.13181 -66.80045,0.91293 l -12.52508,-0.39797 -0.26808,-7.75362 c -1.22963,-35.56526 -3.02337,-70.71464 -4.47423,-87.67558 -0.95407,-11.15329 -1.80623,-36.114 -1.89369,-55.46823 -0.0875,-19.35424 -0.61718,-41.3626 -1.17715,-48.90747 -0.55998,-7.54487 -1.62133,-21.50139 -2.35856,-31.01449 -1.97011,-25.4221 -3.54977,-59.93879 -2.84903,-62.25351 0.87012,-2.87424 6.79821,-4.3615 17.7922,-4.46378 5.24861,-0.0488 18.93673,-0.54763 30.41806,-1.10844 11.48133,-0.56081 35.42204,-0.75832 53.20157,-0.43892 17.77955,0.3194 38.04334,0.19107 45.03066,-0.28519 l 12.70423,-0.86592 0,-12.86201 0,-12.86201 3.54762,-1.46947 c 3.01556,-1.24908 5.65444,-1.00503 17.59476,1.62719 7.72593,1.70316 20.757,4.13103 28.95795,5.39526 8.20095,1.26423 24.30463,3.74014 35.78595,5.50202 11.48133,1.76187 33.2213,5.31585 48.31104,7.89772 15.08974,2.58187 35.75613,6.06687 45.92531,7.74443 15.07083,2.48618 18.93052,3.52986 20.87514,5.64474 2.2985,2.49975 2.37796,4.09846 2.1733,43.73025 -0.11678,22.6246 -0.59857,73.0746 -1.07052,112.11111 -0.79227,65.53017 -0.3308,97.37915 2.57965,178.03512 l 0.67795,18.78763 -3.37306,-0.13837 c -1.85518,-0.0761 -4.44658,-0.40971 -5.75866,-0.74131 z m 3.2924,-17.31152 c -0.17818,-7.38085 -1.20274,-38.91722 -2.27681,-70.08082 -1.4865,-43.12977 -1.73512,-68.76807 -1.04106,-107.35786 1.88198,-104.63953 2.39248,-146.98877 1.7837,-147.96964 -0.34506,-0.55596 -3.53343,1.55131 -7.08526,4.68281 l -6.45789,5.69364 -0.53921,54.78043 c -0.52842,53.68433 0.85228,123.08718 3.72396,187.18846 0.79357,17.71404 1.44286,43.69685 1.44286,57.73956 l 0,25.53221 4.77146,1.4804 c 2.6243,0.81421 5.04838,1.53668 5.38683,1.60548 0.33846,0.0688 0.4696,-5.91381 0.29142,-13.29467 z m -15.72454,-19.17008 c 0.0421,-14.85367 -0.20516,-27.46263 -0.54957,-28.01989 -0.34441,-0.55727 -1.19669,-20.56319 -1.89397,-44.4576 -0.69726,-23.89443 -1.66143,-55.52216 -2.14259,-70.28386 -1.12153,-34.40803 -1.09063,-108.44235 0.0553,-132.66841 l 0.88695,-18.74979 -3.53328,-1.82714 c -1.94331,-1.00492 -5.03612,-1.82539 -6.87291,-1.82328 -1.83676,0.002 -8.70748,-0.80668 -15.26824,-1.79732 -68.27181,-10.30878 -72.88807,-11.05812 -91.85062,-14.9098 -26.6176,-5.40658 -36.74699,-7.18704 -37.36611,-6.56791 -0.31764,0.31762 0.0503,14.13801 0.81768,30.71197 0.76735,16.57395 1.68798,83.00821 2.04584,147.63168 0.35784,64.62346 1.02315,117.87544 1.47846,118.33774 1.55498,1.57885 44.91676,18.55349 62.84576,24.60195 9.84114,3.31995 25.94482,8.21996 35.78595,10.88889 9.84114,2.66892 26.21322,7.46481 36.38239,10.65754 10.16918,3.19272 18.6273,5.68726 18.79583,5.54344 0.16854,-0.14384 0.34092,-12.41453 0.38308,-27.26821 z m -246.81377,-28.5329 c 0.52467,-0.82649 0.96218,-0.96244 0.97222,-0.30213 0.0119,0.78207 9.1747,1.04802 26.28591,0.76293 14.4472,-0.24071 33.29868,0.18403 41.89218,0.94384 8.59351,0.75982 15.95456,1.05149 16.35789,0.64815 0.40334,-0.40333 0.60241,-23.37669 0.44239,-51.05188 -0.16002,-27.6752 -0.45526,-86.01504 -0.65606,-129.64408 -0.25417,-55.22213 -0.85221,-84.16745 -1.96818,-95.26055 l -1.60308,-15.93501 -7.26439,0.8238 c -3.9954,0.45309 -30.88311,1.0352 -59.75044,1.29358 -47.86174,0.42839 -83.86864,1.74392 -100.16922,3.65974 l -6.24472,0.73394 0.45133,11.48662 c 0.24824,6.31764 1.23323,22.22241 2.18887,35.34392 3.42563,47.0356 4.16963,63.71397 4.17821,93.66328 0.005,19.00512 0.86929,41.34603 2.30531,59.61989 1.26314,16.07386 2.66957,42.05934 3.12541,57.74553 l 0.82881,28.52031 38.8368,-0.77458 c 29.23406,-0.58308 39.07267,-1.14616 39.79076,-2.2773 z m 251.86573,-278.61863 6.85964,-6.93198 -14.05417,-2.05711 c -7.7298,-1.13141 -18.34849,-2.83301 -23.5971,-3.78132 -14.33571,-2.59017 -58.33327,-9.46545 -91.25418,-14.25982 -16.07386,-2.34089 -35.12562,-5.54716 -42.33724,-7.12504 -7.21163,-1.57789 -13.33572,-2.64521 -13.6091,-2.37184 -0.27337,0.27338 2.71422,4.09951 6.6391,8.50253 l 7.13613,8.00549 15.41944,2.71315 c 8.4807,1.49223 20.25056,3.78232 26.15524,5.08907 11.46653,2.53764 30.82726,5.73965 75.74693,12.52753 15.41779,2.32981 30.17949,4.70824 32.80379,5.28542 2.62431,0.57717 5.32506,1.11386 6.00167,1.19265 0.67661,0.0788 4.31705,-2.97614 8.08985,-6.78873 z M 371.82427,491.29999 c 1.8936,-0.74618 1.23591,-1.97967 -5.06968,-9.50827 l -7.24554,-8.65086 0,9.59211 0,9.59211 5.06967,-0.0838 c 2.78832,-0.0461 6.04882,-0.46968 7.24555,-0.94125 z"
         style="opacity:1;fill:#000000;fill-opacity:1;fill-rule:nonzero;stroke:none;stroke-width:5.9000001;stroke-miterlimit:4;stroke-dasharray:none;stroke-opacity:1" />
      <path
         inkscape:connector-curvature="0"
         id="path4221"
         d="m 216.62482,666.78161 c -1.6468,-4.41813 -4.01711,-39.96098 -2.74949,-41.2286 2.88856,-2.88857 27.75187,-4.56521 29.3501,-1.97921 0.41688,0.67452 1.29322,10.38504 1.94742,21.57893 1.51077,25.85057 2.08252,24.90926 -15.12983,24.90926 l -12.19548,0 -1.22272,-3.28038 z m 23.17597,-2.404 c 0.95153,-0.60978 1.08983,-3.05363 0.45462,-8.03357 -0.50211,-3.93646 -0.98331,-6.19341 -1.06934,-5.01546 -0.46867,6.41782 -10.75823,10.22618 -16.59109,6.14068 -2.85913,-2.00261 -3.04499,-1.60334 -1.90561,4.09356 l 0.74554,3.72771 8.49916,-0.0183 c 4.67454,-0.01 9.11456,-0.41264 9.86672,-0.89465 z m -5.58455,-12.13018 c 1.66742,-3.11561 1.56142,-8.81761 -0.1966,-10.57563 -2.19144,-2.19144 -6.68922,-1.70325 -8.06952,0.87587 -1.3789,2.5765 -1.66926,9.98216 -0.43959,11.21183 1.74132,1.74131 7.49983,0.74114 8.70571,-1.51207 z m -10.33405,-14.09459 c 4.51432,-4.96193 12.58136,-2.64916 15.60289,4.47325 0.41749,0.98411 0.48582,-0.83537 0.15183,-4.0433 -0.33398,-3.20793 -0.60724,-7.09965 -0.60724,-8.64828 0,-2.56564 -0.50314,-2.8145 -5.66611,-2.80254 -3.11636,0.007 -7.67907,0.34585 -10.13935,0.75251 l -4.47325,0.73938 0,6.8023 c 0,6.4967 1.2068,10.29843 2.21449,6.97627 0.2612,-0.8611 1.57373,-2.77342 2.91674,-4.24959 z"
         style="opacity:1;fill:#000000;fill-opacity:1;fill-rule:nonzero;stroke:none;stroke-width:5.9000001;stroke-miterlimit:4;stroke-dasharray:none;stroke-opacity:1" />
      <path
         inkscape:connector-curvature="0"
         id="path4225"
         d="m 237.36394,604.65433 c -0.33752,-0.54611 -1.46044,-11.1477 -2.49538,-23.55908 -1.03494,-12.41138 -2.34718,-27.66565 -2.91608,-33.89837 -0.84509,-9.25863 -0.72106,-11.65963 0.67787,-13.12152 1.38296,-1.4452 7.15225,-1.93962 30.00059,-2.57101 53.32088,-1.47345 73.81138,-1.23946 75.91776,0.86692 1.61116,1.61116 1.8745,6.38137 1.8745,33.95469 0,29.33779 -0.17845,32.17432 -2.08751,33.18141 -1.14813,0.60567 -16.04404,1.42479 -33.10201,1.82027 -43.39638,1.0061 -63.03469,1.9969 -64.35507,3.24685 -1.41585,1.34033 -2.71738,1.3699 -3.51467,0.0798 z m 68.76439,-8.10522 29.52341,-0.77299 -0.0131,-25.7807 c -0.007,-14.17939 -0.34975,-27.81764 -0.76116,-30.30724 l -0.74803,-4.52654 -48.44453,0.76174 c -26.64449,0.41896 -48.67842,0.98996 -48.96429,1.26889 -0.49028,0.47839 2.78232,43.22853 4.26991,55.77797 l 0.68899,5.81238 17.4627,-0.73026 c 9.60449,-0.40164 30.74825,-1.07811 46.98612,-1.50325 z"
         style="opacity:1;fill:#000000;fill-opacity:1;fill-rule:nonzero;stroke:none;stroke-width:5.9000001;stroke-miterlimit:4;stroke-dasharray:none;stroke-opacity:1" />
      <path
         inkscape:connector-curvature="0"
         id="path4229"
         d="m 248.06749,755.65006 c -1.18711,-7.50523 -5.41279,-49.34672 -6.18587,-61.25086 l -0.78224,-12.04518 15.96347,-0.80676 c 46.75148,-2.36272 82.87309,-3.12461 86.0443,-1.81488 l 3.28038,1.35483 0.2699,31.16799 c 0.34918,40.32447 0.33645,41.09861 -0.69262,42.12769 -0.47988,0.47987 -16.02172,1.26423 -34.53744,1.74301 -18.51571,0.47878 -38.2056,1.43987 -43.75532,2.13574 -5.54971,0.69588 -12.0931,1.26523 -14.54087,1.26523 -4.10003,0 -4.49877,-0.30528 -5.06369,-3.87681 z m 31.61174,-3.26706 c 8.15027,-0.63363 20.99174,-1.16745 28.53662,-1.18627 7.54487,-0.0188 18.14646,-0.37895 23.55908,-0.8003 l 9.84114,-0.76609 -0.007,-22.78585 c -0.004,-12.53222 -0.35593,-27.26676 -0.78222,-32.74343 l -0.77506,-9.95758 -30.5305,0.73162 c -16.79177,0.40239 -37.71819,1.0506 -46.50316,1.44047 l -15.97267,0.70884 0.81469,12.69214 c 0.76875,11.9764 3.08053,34.70859 4.97369,48.9073 l 0.85247,6.39353 5.5872,-0.74117 c 3.07296,-0.40764 12.2556,-1.25959 20.40587,-1.89321 z"
         style="opacity:1;fill:#000000;fill-opacity:1;fill-rule:nonzero;stroke:none;stroke-width:5.9000001;stroke-miterlimit:4;stroke-dasharray:none;stroke-opacity:1" />
    </g>
    <path
       style="opacity:1;fill:#2c89a0;fill-opacity:1;fill-rule:nonzero;stroke:none;stroke-width:5.9000001;stroke-miterlimit:4;stroke-dasharray:none;stroke-opacity:1"
       d="m 204.7339,726.17366 c -0.13098,-0.4303 -0.54446,-10.83637 -0.91883,-23.12461 -0.65572,-21.52263 -1.74434,-43.37518 -3.00342,-60.28902 -1.44002,-19.34466 -1.85766,-30.37032 -2.38418,-62.94296 -0.60382,-37.35465 -0.77377,-41.1624 -3.90099,-87.40419 -2.31766,-34.27087 -3.17752,-51.89114 -2.55114,-52.27793 0.74655,-0.461 17.21087,-1.96206 28.21978,-2.57281 12.04004,-0.66795 46.66073,-1.51797 100.82805,-2.47554 20.01645,-0.35386 38.00441,-0.85504 39.97325,-1.11374 1.96883,-0.2587 3.7548,-0.30379 3.96882,-0.10019 0.7776,0.73973 2.34446,20.83071 2.89368,37.10419 0.73732,21.84694 2.0156,235.18011 1.47581,246.30075 l -0.41702,8.59155 -8.13696,-0.39679 c -4.47533,-0.21824 -12.96954,-0.65341 -18.87604,-0.96704 -5.90649,-0.31364 -21.12672,-0.5782 -33.82272,-0.58791 -14.55299,-0.0112 -23.2184,-0.23569 -23.44828,-0.60764 -0.22575,-0.36527 -0.87931,-0.25276 -1.71588,0.29538 -1.77041,1.16002 -16.60784,1.90713 -46.9124,2.3622 -12.63334,0.18971 -24.78403,0.48976 -27.00154,0.66679 -3.02791,0.24172 -4.09114,0.12706 -4.26999,-0.46049 z m 53.94293,-31.1703 c 8.4806,-0.836 21.59915,-1.46547 57.71641,-2.7694 9.92281,-0.35825 18.78255,-0.84838 19.68832,-1.08918 1.50903,-0.40119 1.67479,-0.73403 1.98079,-3.9772 0.18368,-1.94666 0.21375,-18.36414 0.0668,-36.48329 l -0.26711,-32.94392 -2.155,-0.76487 c -4.04621,-1.43612 -41.31665,-0.78042 -87.88591,1.5462 -7.77538,0.38846 -14.31969,0.88893 -14.54291,1.11215 -0.95889,0.95889 5.32401,67.76076 6.95874,73.98766 l 0.58735,2.23731 4.60077,-0.001 c 2.53043,-8.7e-4 8.4937,-0.38522 13.25171,-0.85427 z m -28.40308,-88.60915 c 5.99228,-0.77203 6.57463,-1.53449 6.83011,-8.94259 0.23198,-6.72652 -1.51399,-34.0842 -2.30864,-36.17428 -0.72051,-1.8951 -3.38214,-2.29865 -12.17223,-1.84555 -7.22947,0.37266 -12.9237,1.18868 -15.72406,2.25338 l -1.50378,0.57174 0.3772,12.06147 c 0.51183,16.36649 1.59604,26.44685 3.33705,31.02607 l 0.61541,1.61864 8.21823,-0.0195 c 4.52003,-0.0107 10.06885,-0.25795 12.33071,-0.54936 l 0,-10e-6 z m 4.24244,-65.58433 c 3.29124,-0.83739 20.76567,-1.72917 48.02526,-2.45089 32.03006,-0.84803 46.62939,-1.66927 47.66056,-2.68099 0.50692,-0.49735 1.04792,-3.19235 1.39987,-6.97333 0.6856,-7.3657 0.21672,-54.89904 -0.56692,-57.47165 -1.03875,-3.4101 -2.19602,-3.53685 -31.78827,-3.48161 -28.24513,0.0527 -65.2751,1.108 -70.89065,2.02023 -1.98611,0.32264 -3.69659,0.97119 -4.13377,1.56737 -0.43548,0.59385 -0.74577,2.82735 -0.74577,5.36806 0,7.06453 5.05138,63.63083 5.7888,64.82399 0.17447,0.2823 0.88983,0.37227 1.58968,0.19993 0.69985,-0.17234 2.34739,-0.58684 3.66121,-0.92111 z"
       id="path4243"
       inkscape:connector-curvature="0"
       inkscape:export-xdpi="300"
       inkscape:export-ydpi="300" />
    <path
       style="opacity:1;fill:#006680;fill-opacity:1;fill-rule:nonzero;stroke:none;stroke-width:5.9000001;stroke-miterlimit:4;stroke-dasharray:none;stroke-opacity:1"
       d="m 233.34193,535.40279 c -1.04647,-1.6975 -5.71909,-60.46067 -4.87474,-61.30502 0.79957,-0.79957 96.29148,-2.71925 97.20694,-1.95416 1.07811,0.90102 1.59289,12.40975 1.6029,35.83527 l 0.0106,24.81354 -17.45101,0.39733 c -19.74115,0.44947 -71.3104,2.09034 -74.31487,2.36461 -1.08637,0.0992 -2.06729,0.031 -2.17982,-0.15157 z"
       id="path4251"
       inkscape:connector-curvature="0"
       inkscape:export-xdpi="300"
       inkscape:export-ydpi="300" />
    <path
       style="opacity:1;fill:#006680;fill-opacity:1;fill-rule:nonzero;stroke:none;stroke-width:5.9000001;stroke-miterlimit:4;stroke-dasharray:none;stroke-opacity:1"
       d="m 244.72685,688.84859 c -1.76532,-12.82767 -4.30069,-38.75694 -6.00195,-61.38212 l -0.27517,-3.65955 6.08639,-0.36816 c 12.16254,-0.73568 86.9169,-2.96542 87.27554,-2.60321 0.67927,0.68603 1.47801,27.49418 1.32872,44.59587 l -0.1849,21.17986 -4.77293,0.39412 c -2.62511,0.21677 -14.75746,0.6866 -26.96079,1.04407 -20.6501,0.6049 -37.40273,1.65187 -48.79375,3.04939 -7.52035,0.92264 -7.25378,1.00054 -7.70116,-2.25027 z"
       id="path4253"
       inkscape:connector-curvature="0"
       inkscape:export-xdpi="300"
       inkscape:export-ydpi="300" />
    <path
       style="opacity:1;fill:#006680;fill-opacity:1;fill-rule:nonzero;stroke:none;stroke-width:5.9000001;stroke-miterlimit:4;stroke-dasharray:none;stroke-opacity:1"
       d="m 519.09957,450.32426 c -3.93766,-0.75138 -20.449,-3.41221 -36.69186,-5.91295 -38.51273,-5.92939 -59.00039,-9.35948 -71.05443,-11.89608 -8.09643,-1.70378 -39.11501,-7.51993 -40.10516,-7.51993 -0.42257,0 -12.92243,-14.37098 -13.5983,-15.63385 -0.80917,-1.51196 0.52536,-1.42435 11.15867,0.73249 11.51515,2.33571 28.77895,5.21398 51.84949,8.64447 26.20458,3.89652 64.40386,9.89157 85.01774,13.34281 9.68009,1.62067 21.80752,3.554 26.94984,4.29629 l 9.34968,1.34962 -1.59368,2.09211 c -2.09166,2.74584 -12.54816,12.04553 -13.43364,11.94747 -0.37893,-0.042 -3.91069,-0.69106 -7.84835,-1.44245 z"
       id="path4255"
       inkscape:connector-curvature="0"
       inkscape:export-xdpi="300"
       inkscape:export-ydpi="300" />
    <path
       style="opacity:1;fill:#006680;fill-opacity:1;fill-rule:nonzero;stroke:none;stroke-width:5.9000001;stroke-miterlimit:4;stroke-dasharray:none;stroke-opacity:1"
       d="m 540.42858,783.07551 -4.92208,-1.48296 -0.0114,-14.08016 c -0.0143,-17.59119 -0.88341,-51.43654 -2.06216,-80.3045 -2.6934,-65.96242 -3.51313,-112.01833 -3.14847,-176.89448 l 0.30348,-53.99165 4.09998,-3.7482 c 2.25499,-2.06152 5.30814,-4.56156 6.78476,-5.55566 l 2.68477,-1.80745 0.29831,4.65866 c 0.35733,5.58049 -0.16902,55.96486 -1.20171,115.03257 -0.92038,52.64375 -0.50234,110.99026 1.12209,156.61162 1.86454,52.36468 2.07814,61.18906 1.50452,62.15381 -0.46038,0.7743 -1.17639,0.69661 -5.45206,-0.5916 z"
       id="path4257"
       inkscape:connector-curvature="0"
       inkscape:export-xdpi="300"
       inkscape:export-ydpi="300" />
    <path
       style="opacity:1;fill:#006680;fill-opacity:1;fill-rule:nonzero;stroke:none;stroke-width:5.9000001;stroke-miterlimit:4;stroke-dasharray:none;stroke-opacity:1"
       d="m 351.15226,419.50644 c 0,-5.81472 0.216,-9.43938 0.54219,-9.09839 0.29821,0.31173 3.11941,3.65427 6.26934,7.42787 5.25841,6.29953 6.97776,9.08097 6.13462,9.92411 -0.69577,0.69577 -5.08739,1.38381 -8.919,1.39735 l -4.02715,0.0142 0,-9.66517 z"
       id="path4259"
       inkscape:connector-curvature="0"
       inkscape:export-xdpi="300"
       inkscape:export-ydpi="300" />
    <path
       style="opacity:1;fill:#666666;fill-opacity:1;fill-rule:nonzero;stroke:none;stroke-width:5.9000001;stroke-miterlimit:4;stroke-dasharray:none;stroke-opacity:1"
       d="m 211.13816,579.96623 c -0.26204,-0.41018 -0.57369,-3.86806 -0.69254,-7.68419 l -0.2161,-6.93841 3.83844,-0.66844 c 4.43111,-0.77164 15.75745,-0.90054 16.20007,-0.18436 0.48705,0.78808 1.56334,14.63083 1.16576,14.99356 -0.20055,0.18297 -0.50225,-0.07 -0.67043,-0.56224 -0.16818,-0.49221 -1.41535,-2.01282 -2.77149,-3.37914 -2.5842,-2.60359 -5.56188,-3.6493 -8.37851,-2.94237 -2.0777,0.52147 -5.36423,3.55041 -6.53937,6.02683 -1.09642,2.31054 -1.24801,2.41538 -1.93583,1.33876 z"
       id="path4261"
       inkscape:connector-curvature="0"
       inkscape:export-xdpi="300"
       inkscape:export-ydpi="300" />
    <path
       style="opacity:1;fill:#666666;fill-opacity:1;fill-rule:nonzero;stroke:none;stroke-width:5.9000001;stroke-miterlimit:4;stroke-dasharray:none;stroke-opacity:1"
       d="m 212.14493,598.03834 c -0.39693,-2.35329 -0.55835,-4.44207 -0.3587,-4.64172 0.19965,-0.19964 1.53154,0.2206 2.95975,0.93389 5.55382,2.77371 12.59008,0.93499 15.07708,-3.93996 1.15404,-2.2621 1.30969,-2.3731 1.63663,-1.16712 0.19872,0.733 0.53224,3.48586 0.74114,6.11746 0.51927,6.54128 0.59921,6.48999 -10.53896,6.76166 l -8.79524,0.21451 -0.7217,-4.27872 z"
       id="path4265"
       inkscape:connector-curvature="0"
       inkscape:export-xdpi="300"
       inkscape:export-ydpi="300" />
    <path
       style="opacity:1;fill:#999999;fill-opacity:1;fill-rule:nonzero;stroke:none;stroke-width:5.9000001;stroke-miterlimit:4;stroke-dasharray:none;stroke-opacity:1"
       d="m 217.25465,590.51354 c -1.20605,-1.20605 -1.26215,-7.27312 -0.0931,-10.07099 1.49388,-3.57536 5.76544,-4.51063 8.43025,-1.84583 2.69446,2.69446 1.70914,10.29027 -1.55372,11.97756 -2.22123,1.14865 -5.60431,1.11835 -6.78341,-0.0607 z"
       id="path4267"
       inkscape:connector-curvature="0"
       inkscape:export-xdpi="300"
       inkscape:export-ydpi="300" />
  </g>
</svg>
