<?xml version="1.0" encoding="UTF-8" standalone="no"?>
<!-- Created with Inkscape (http://www.inkscape.org/) -->

<svg
   xmlns:dc="http://purl.org/dc/elements/1.1/"
   xmlns:cc="http://creativecommons.org/ns#"
   xmlns:rdf="http://www.w3.org/1999/02/22-rdf-syntax-ns#"
   xmlns:svg="http://www.w3.org/2000/svg"
   xmlns="http://www.w3.org/2000/svg"
   xmlns:sodipodi="http://sodipodi.sourceforge.net/DTD/sodipodi-0.dtd"
   xmlns:inkscape="http://www.inkscape.org/namespaces/inkscape"
   width="210mm"
   height="297mm"
   viewBox="0 0 744.09448819 1052.3622047"
   id="svg2"
   version="1.1"
   inkscape:version="0.91 r13725"
   sodipodi:docname="Heart and Bookshelf.svg">
  <defs
     id="defs4" />
  <sodipodi:namedview
     id="base"
     pagecolor="#ffffff"
     bordercolor="#666666"
     borderopacity="1.0"
     inkscape:pageopacity="0.0"
     inkscape:pageshadow="2"
     inkscape:zoom="1.6969759"
     inkscape:cx="283.86271"
     inkscape:cy="679.70305"
     inkscape:document-units="px"
     inkscape:current-layer="layer1"
     showgrid="false"
     inkscape:window-width="1440"
     inkscape:window-height="851"
     inkscape:window-x="0"
     inkscape:window-y="1"
     inkscape:window-maximized="1" />
  <metadata
     id="metadata7">
    <rdf:RDF>
      <cc:Work
         rdf:about="">
        <dc:format>image/svg+xml</dc:format>
        <dc:type
           rdf:resource="http://purl.org/dc/dcmitype/StillImage" />
        <dc:title></dc:title>
      </cc:Work>
    </rdf:RDF>
  </metadata>
  <g
     inkscape:label="Ebene 1"
     inkscape:groupmode="layer"
     id="layer1">
    <path
       style="opacity:1;fill:#000000;fill-opacity:1;fill-rule:nonzero;stroke:none;stroke-width:5.9000001;stroke-miterlimit:4;stroke-dasharray:none;stroke-opacity:1"
       d="m 162.31658,393.17195 c -31.68638,-24.8155 -46.58226,-42.27024 -52.12877,-61.08361 -0.87486,-2.96745 -2.08561,-6.00152 -2.69057,-6.74239 -1.62377,-1.98854 -0.11587,-13.63622 2.45206,-18.94085 2.68344,-5.54325 12.36341,-14.64741 20.10866,-18.9125 5.24077,-2.88594 6.65082,-3.1739 15.32394,-3.12947 8.4252,0.0432 10.36248,0.43464 16.42178,3.31846 3.77835,1.79823 9.41539,5.20033 12.52677,7.56021 l 5.65705,4.29069 6.52685,-4.81679 c 7.43306,-5.48558 14.67187,-8.94568 22.78891,-10.89292 17.06313,-4.09339 37.33054,8.61134 39.95836,25.04809 2.45539,15.35829 -13.16263,46.18232 -32.65007,64.43878 -17.15784,16.074 -35.89814,32.28189 -37.34345,32.29713 -0.58271,0.006 -8.21089,-5.58952 -16.95152,-12.43483 z m 31.46674,-4.46104 c 6.23524,-5.55715 13.78382,-12.20458 16.77461,-14.77205 7.20998,-6.18949 15.31269,-16.43032 22.52342,-28.46684 7.32861,-12.23331 10.72269,-22.54024 10.77524,-32.72163 0.0349,-6.75616 -0.30845,-8.07762 -3.13925,-12.08305 -5.08447,-7.19425 -9.81008,-10.36173 -18.02221,-12.07993 -6.55071,-1.37059 -8.06757,-1.35141 -14.25449,0.18023 -7.00671,1.73459 -14.93898,6.08942 -22.99403,12.62376 -2.4289,1.97035 -4.86962,3.58245 -5.42382,3.58245 -0.5542,0 -3.33453,-1.84329 -6.17851,-4.09621 -2.84399,-2.25291 -8.00139,-5.68605 -11.46089,-7.6292 -5.46857,-3.0716 -7.48308,-3.59003 -15.42567,-3.96977 -8.32026,-0.3978 -9.645,-0.17868 -14.84223,2.45496 -7.73236,3.91828 -17.69868,13.55815 -19.05119,18.42715 -1.68282,6.05814 -1.26315,11.89259 1.42348,19.78991 6.87906,20.22095 16.47136,32.13863 42.68896,53.0377 18.46456,14.71882 22.53162,17.51799 24.07103,16.56699 0.6593,-0.4073 6.3003,-5.28731 12.53555,-10.84447 z"
       id="path4224"
       inkscape:connector-curvature="0"
       inkscape:export-xdpi="300"
       inkscape:export-ydpi="300" />
    <g
       id="g4248"
       style="fill:#000000"
       inkscape:export-xdpi="600"
       inkscape:export-ydpi="600">
      <path
         inkscape:connector-curvature="0"
         id="path4226"
         d="m 358.37174,400.71635 c -2.45182,-0.17433 -3.33517,-0.51144 -4.71319,-1.7987 l -1.69585,-1.58416 0.37146,-10.97146 c 0.61279,-18.09922 0.97387,-22.19082 2.05358,-23.27033 0.82367,-0.82351 2.57204,-1.00669 13.64814,-1.42995 l 12.70346,-0.48546 -0.28631,-1.63348 c -0.15747,-0.89842 -0.33961,-5.85296 -0.40477,-11.01009 -0.10477,-8.29287 -0.0121,-9.48377 0.80157,-10.3039 0.83944,-0.84609 2.85044,-0.94706 22.95741,-1.1527 l 22.03738,-0.22538 -0.29314,-1.65461 c -0.16123,-0.91004 -0.33494,-3.89783 -0.38602,-6.63954 l -0.0929,-4.98493 2.32615,-0.91164 c 3.17821,-1.24557 18.61181,-2.08181 39.73756,-2.1531 9.14184,-0.0308 18.76696,-0.20964 21.38915,-0.3973 l 4.76761,-0.34121 0.26487,-9.79562 0.26487,-9.79563 1.5892,-0.3391 c 0.87407,-0.1865 8.93402,-0.36729 17.91101,-0.40177 l 16.32181,-0.0627 -0.29994,-2.25137 c -0.16497,-1.23826 -0.54111,-11.66741 -0.83588,-23.1759 -0.50656,-19.77729 -1.25022,-34.02225 -1.85894,-35.60857 -0.15019,-0.39136 0.56792,-1.52667 1.59577,-2.52291 l 1.86883,-1.81134 6.39309,-0.29095 c 5.61248,-0.25542 6.4939,-0.17941 7.21877,0.62257 0.45412,0.50243 1.24768,1.04744 1.76346,1.21115 0.73718,0.23397 1.0104,1.11502 1.27731,4.11896 0.18675,2.10174 0.60153,6.06173 0.92174,8.8 l 0.5822,4.97866 8.79775,-0.34255 c 4.83877,-0.1884 18.80974,-0.46795 31.04662,-0.62123 13.21779,-0.16556 26.51713,-0.62762 32.76413,-1.13833 8.98349,-0.73444 10.58473,-0.75185 10.99214,-0.11956 0.85818,1.33191 1.51413,4.42553 2.06524,9.74022 0.29805,2.87433 0.59889,5.28186 0.66853,5.35005 0.22905,0.22432 11.08948,-1.29838 11.38771,-1.59661 0.41327,-0.41326 0.42566,-7.1127 0.0578,-31.23423 -0.17723,-11.62114 -0.20609,-21.57353 -0.0641,-22.11643 0.2196,-0.83974 0.78265,-0.98496 3.77206,-0.97284 1.93265,0.008 8.46102,-0.39577 14.50746,-0.89689 10.95996,-0.90834 10.99798,-0.90781 12.44877,0.17368 1.6705,1.24527 1.62633,0.95291 3.02411,20.01895 0.46889,6.39585 0.90367,11.67262 0.96617,11.72615 0.0625,0.0535 4.64286,-0.22507 10.17859,-0.6191 5.53573,-0.39403 10.7801,-0.61014 11.65416,-0.48024 0.87407,0.1299 3.93889,0.36555 6.81073,0.52366 8.97872,0.49435 8.54544,-0.4129 8.57777,17.96111 0.0144,8.18496 0.3196,22.15236 0.67821,31.03866 0.35861,8.8863 0.8614,27.3271 1.11731,40.97956 0.30148,16.08343 0.66195,25.01931 1.02387,25.38123 0.39161,0.3916 7.00191,0.29289 22.11445,-0.33026 24.41096,-1.00656 23.10665,-1.18119 23.70354,3.17359 0.18235,1.33037 0.0894,6.98321 -0.20647,12.56186 -0.35385,6.67114 -0.36078,11.50295 -0.0202,14.11603 l 0.51776,3.97301 -1.54725,1.46584 -1.54725,1.46584 -47.03299,0.51532 c -25.86816,0.28342 -57.40257,0.61095 -70.07647,0.72782 -12.67391,0.11688 -29.24137,0.47994 -36.81657,0.8068 -68.07672,2.93744 -135.53678,4.45629 -167.92595,3.78083 -6.96761,-0.14531 -14.84953,0.022 -19.60018,0.41596 -4.37032,0.36245 -18.67316,0.87144 -31.78409,1.13108 -13.11094,0.25965 -25.02998,0.57466 -26.48675,0.70004 -1.45677,0.12537 -4.00647,0.13141 -5.66601,0.0134 l 0,10e-6 z m 31.88789,-4.67796 c 9.76036,-0.13618 22.27535,-0.5468 27.81108,-0.91248 6.20479,-0.40989 17.98847,-0.60213 30.72462,-0.50126 11.36281,0.09 35.32007,-0.20909 53.23835,-0.66464 17.91828,-0.45555 37.94226,-0.90852 44.49772,-1.0066 13.54221,-0.20261 52.62118,-1.63466 68.86553,-2.52357 5.97276,-0.32685 37.31982,-0.77745 69.66013,-1.00135 32.34031,-0.2239 62.85304,-0.58956 67.80606,-0.81259 l 9.00549,-0.40549 0.14075,-14.80121 0.14075,-14.80121 -1.99482,0.29641 c -7.3145,1.0869 -28.10827,1.63691 -82.24965,2.17556 -85.88065,0.85442 -121.36134,1.36236 -126.34175,1.80869 -2.91355,0.26111 -11.49525,0.62632 -19.07046,0.81159 -19.11503,0.4675 -111.5623,1.4071 -140.11486,1.42408 -12.96526,0.008 -25.95701,0.17534 -28.87055,0.37252 l -5.29735,0.3585 -0.35079,4.50275 c -0.19293,2.47651 -0.52607,9.31223 -0.74031,15.19048 l -0.38952,10.68774 1.79978,0.24944 c 0.98988,0.13719 4.54116,0.14837 7.89173,0.0249 3.35057,-0.12354 14.0777,-0.33602 23.83807,-0.4722 z m 35.88953,-34.9371 c 9.42489,-0.18261 12.31824,-0.0879 12.32445,0.40364 0.005,0.39955 0.19798,0.34198 0.51053,-0.15233 0.43413,-0.68662 4.08649,-0.80877 26.87592,-0.89884 14.50544,-0.0573 26.79069,-0.11692 27.30056,-0.13243 0.85023,-0.0258 0.92704,-0.884 0.92704,-10.35803 l 0,-10.32983 -6.48926,0.009 c -7.84392,0.0108 -35.3082,0.71166 -74.16745,1.89267 l -10.99657,0.33421 -0.33227,1.32385 c -0.57358,2.28533 0.21297,8.31966 1.63761,12.5636 0.75331,2.24404 1.23252,4.30193 1.06493,4.5731 -0.65619,1.06173 -2.83409,0.47143 -3.92785,-1.06462 -1.63636,-2.29807 -3.20088,-9.08691 -3.20088,-13.88942 0,-3.33852 -0.15586,-4.15314 -0.79461,-4.15314 -0.43703,0 -0.79641,0.41717 -0.79862,0.92704 -0.002,0.50987 -0.23138,2.90444 -0.50926,5.32127 -0.32433,2.82072 -0.32082,5.28669 0.01,6.88655 1.31695,6.37282 1.35201,5.9356 -0.47591,5.9356 -1.39695,0 -1.83058,-0.34268 -2.84896,-2.25138 -1.00605,-1.88561 -1.20126,-3.06895 -1.20157,-7.28385 -2.1e-4,-2.76787 0.18272,-6.05798 0.40649,-7.31136 l 0.40687,-2.27889 -3.3215,0.33393 c -1.82683,0.18367 -3.62285,0.42824 -3.99117,0.5435 -0.51979,0.16266 -0.6012,2.08005 -0.36375,8.56664 0.16825,4.59639 0.41317,8.88794 0.54427,9.53678 0.23404,1.1584 0.40802,1.18285 9.6341,1.35356 5.16767,0.0956 11.66038,0.0983 14.42825,0.006 2.76786,-0.0924 10.57483,-0.27538 17.34881,-0.40663 l 0,-2e-5 z m 99.89872,-1.15047 5.73834,-0.34375 -0.32795,-8.7949 c -0.18038,-4.83719 -0.54879,-12.96656 -0.81867,-18.06526 -0.26989,-5.09869 -0.64776,-13.73999 -0.8397,-19.20288 l -0.349,-9.93253 -15.84782,0 -15.84782,0 0.30054,21.85156 c 0.16529,12.01836 0.43664,24.76894 0.60299,28.33462 l 0.30245,6.48305 10.67414,0.007 c 5.87078,0.004 13.25641,-0.14777 16.4125,-0.33683 l 0,-2e-5 z m 22.01488,-1.04058 c 0.29164,-0.25205 -0.78344,-10.75942 -1.13705,-11.11302 -0.15983,-0.15983 -1.68462,-0.0325 -3.38843,0.28292 -2.72245,0.50402 -3.17807,0.46408 -3.75999,-0.32968 -1.58393,-2.16048 -0.37111,-3.53364 3.41882,-3.87082 l 3.07043,-0.27316 -0.16463,-6.88655 c -0.0906,-3.78761 -0.40378,-10.46227 -0.69607,-14.83258 -1.1383,-17.02009 -1.46083,-26.65466 -1.49848,-44.76259 -0.0215,-10.34308 -0.18423,-19.34727 -0.36161,-20.00933 -0.2877,-1.07381 -0.52992,-1.16083 -2.24414,-0.80628 -2.92779,0.60556 -7.38194,0.36985 -8.36544,-0.44269 -0.79281,-0.655 -0.84511,-0.57088 -0.53681,0.86351 0.18787,0.87406 0.57351,10.05171 0.85698,20.39479 0.74061,27.02338 1.61549,52.18234 1.94803,56.01946 l 0.28693,3.31084 2.61787,0 c 2.30763,0 2.69251,0.16382 3.24772,1.38237 0.53793,1.18064 0.48719,1.48668 -0.34776,2.0972 -0.53768,0.39317 -2.05208,0.87597 -3.36533,1.07291 l -2.38773,0.35805 0.44249,6.94753 c 0.24337,3.82114 0.40878,7.94343 0.36759,9.16063 l -0.0749,2.21312 5.93225,-0.29886 c 3.26273,-0.16438 6.0254,-0.37937 6.13926,-0.47777 z m 25.74999,-1.01067 c 7.57521,-0.16119 14.30028,-0.40596 14.94461,-0.54393 1.09123,-0.23368 1.15438,-0.4774 0.92154,-3.55674 -0.13748,-1.81823 -0.61902,-10.09972 -1.07009,-18.40331 -0.45107,-8.3036 -1.03901,-17.71963 -1.30654,-20.92453 -0.26752,-3.20489 -0.73554,-9.64117 -1.04003,-14.30284 -0.30449,-4.66166 -0.9043,-13.12418 -1.3329,-18.80558 -0.42859,-5.68141 -0.93716,-13.51431 -1.13015,-17.40645 l -0.35088,-7.07661 -9.58539,0.3289 c -5.27197,0.1809 -13.13638,0.47389 -17.47646,0.65109 l -7.89106,0.32219 0.30244,26.82032 c 0.16634,14.75117 0.55598,29.68088 0.86586,33.17713 0.30988,3.49625 1.05492,13.8483 1.65564,23.00456 0.60073,9.15626 1.22541,16.86323 1.38818,17.1266 0.16277,0.26336 1.87908,0.34462 3.81404,0.18056 1.93494,-0.16407 9.71598,-0.43018 17.29119,-0.59136 z m 52.90988,-0.0614 8.41215,-0.32064 -0.3337,-3.19263 c -0.18353,-1.75595 -0.33369,-3.73699 -0.33369,-4.4023 0,-1.12189 -0.12489,-1.17063 -1.72164,-0.67183 -2.26582,0.70782 -18.73456,1.22025 -23.84027,0.74181 -3.70422,-0.34711 -4.0343,-0.47705 -4.34373,-1.70989 -0.66442,-2.64729 0.34281,-3.00621 7.38573,-2.63185 3.49965,0.18603 9.58113,0.0786 13.51441,-0.23881 3.93329,-0.31737 7.62819,-0.61507 8.21089,-0.66154 0.85992,-0.0686 1.09115,-0.52888 1.22764,-2.44373 0.0925,-1.29758 -0.0839,-3.36031 -0.39201,-4.58385 -0.30809,-1.22355 -0.93069,-7.07493 -1.38356,-13.00309 -0.45287,-5.92815 -1.05709,-12.80469 -1.34271,-15.2812 -0.28562,-2.47651 -0.74418,-10.34307 -1.01902,-17.48125 -0.69966,-18.17139 -1.56012,-34.38187 -1.89607,-35.72038 -0.2692,-1.0726 -0.48392,-1.11134 -4.096,-0.73903 -8.63597,0.89014 -19.69733,1.47573 -28.06936,1.486 l -8.89515,0.0109 0.28405,3.84058 c 0.15621,2.11232 0.75865,10.15767 1.33874,17.87855 0.58008,7.72089 1.29035,17.49449 1.57837,21.71913 0.28802,4.22463 0.76275,10.89929 1.05496,14.83257 0.29221,3.93329 0.68038,10.42916 0.86261,14.43528 l 0.33134,7.28385 8.02418,-0.0178 c 7.36708,-0.0164 13.91268,-0.42367 21.58642,-1.3432 2.63964,-0.3163 2.99673,-0.24394 3.23178,0.65492 0.57728,2.20752 -0.38905,3.16738 -3.90203,3.8759 -3.45421,0.69666 -4.55685,0.77509 -19.6461,1.39758 l -8.87306,0.36605 0.003,3.75768 c 0.002,2.06672 0.15535,5.7123 0.34133,8.10127 l 0.33814,4.34359 2.17492,0.22508 c 2.36544,0.24481 16.82451,0.002 30.18726,-0.50769 l 0,10e-6 z m 24.16654,-1.01116 c 0,-0.44962 -0.34207,-4.08492 -0.76016,-8.07846 -0.41809,-3.99353 -0.91216,-13.57806 -1.09794,-21.29894 -0.18578,-7.72089 -0.45595,-15.34907 -0.60039,-16.95152 -0.14442,-1.60245 -0.39673,-7.24616 -0.56067,-12.54159 l -0.29808,-9.62805 -6.09455,0.0928 -6.09455,0.0928 0.30429,8.47575 c 0.16736,4.66167 0.55914,10.38281 0.87063,12.71364 1.02788,7.69166 2.67725,30.31908 2.67725,36.72872 0,3.46324 0.15159,7.40278 0.33687,8.75454 l 0.33687,2.45774 5.49021,0 c 4.59534,0 5.49022,-0.13324 5.49022,-0.81748 z m 31.55186,-5.67177 c -0.81337,-14.3289 -3.53117,-51.76297 -4.02868,-55.48972 -0.69369,-5.19631 -1.54115,-25.36856 -1.55513,-37.01705 -0.0101,-8.3976 -1.74931,-39.68929 -2.44408,-43.97306 l -0.29108,-1.79475 -4.33259,0.34839 c -2.38293,0.19161 -7.31235,0.47679 -10.95428,0.63373 -3.64193,0.15693 -7.19681,0.4049 -7.89974,0.55104 l -1.27805,0.2657 0.36654,26.58746 c 0.2016,14.6231 0.60789,29.8056 0.90286,33.73888 0.51446,6.85982 0.75446,12.65991 2.0605,49.79507 0.32278,9.17766 0.93827,20.1031 1.36775,24.27877 0.42948,4.17566 0.64562,7.81096 0.48031,8.07845 -0.17964,0.29066 5.38772,0.48634 13.83672,0.48634 l 14.13731,0 -0.36836,-6.48925 z m 20.74931,5.619 12.83594,-0.35575 -0.27429,-5.61138 c -0.15087,-3.08626 -0.40839,-7.37551 -0.57227,-9.53166 l -0.29797,-3.92028 -12.52854,0.37572 c -6.89069,0.20665 -13.36287,0.5511 -14.38261,0.76545 l -1.85407,0.38973 0.2,8.98191 c 0.12985,5.83157 0.40855,9.12566 0.7946,9.39175 0.32703,0.22541 1.19056,0.28843 1.91894,0.14005 0.72839,-0.14838 7.10051,-0.42988 14.16027,-0.62554 z M 457.27108,335.91944 c 12.52823,-0.30194 25.88762,-0.68429 29.68752,-0.84965 l 6.90892,-0.30068 -0.21549,-5.11655 c -0.11852,-2.81409 -0.27254,-5.18103 -0.34227,-5.25986 -0.0697,-0.0788 -1.8003,0.0122 -3.84571,0.20231 l -3.71893,0.34564 0.2642,3.29141 c 0.2252,2.80546 0.12613,3.3444 -0.67097,3.65028 -2.20429,0.84587 -3.95186,-1.51862 -3.96137,-5.35981 l -0.003,-1.1919 -17.81456,0 -17.81457,0 0.36065,3.65999 c 0.40533,4.11345 0.0378,4.72103 -2.20811,3.6505 -1.15739,-0.55167 -1.61826,-1.32427 -2.22988,-3.73808 -0.71916,-2.83825 -0.87552,-3.04268 -2.32707,-3.04268 l -1.55611,0 0.29064,4.24032 c 0.28651,4.18 0.27188,4.24502 -1.02861,4.57142 -2.13096,0.53484 -3.01852,-0.85568 -3.25864,-5.1053 l -0.20943,-3.70644 -2.13463,0 -2.13462,0 0.34033,3.25612 c 0.18718,1.79086 0.34033,4.17467 0.34033,5.29735 l 0,2.04123 2.25137,0.007 c 1.23826,0.004 12.50175,-0.24036 25.02997,-0.5423 l 0,1e-5 z M 714.41745,302.8169 c -0.35974,-7.57521 -0.63291,-23.70241 -0.60707,-35.83822 l 0.047,-22.06512 -6.63385,-0.38262 c -6.29836,-0.36328 -25.3629,0.38631 -25.99882,1.02224 -0.4423,0.44229 0.87279,44.42056 1.46682,49.05283 0.28023,2.18515 0.86465,9.57495 1.29872,16.42178 0.43407,6.84682 0.9449,14.853 1.13517,17.79152 l 0.34595,5.34275 13.30109,-0.22986 c 7.86579,-0.13592 13.84226,-0.0212 14.62542,0.28067 l 1.32434,0.51052 0.17464,-9.06669 c 0.0961,-4.98669 -0.11968,-15.2646 -0.4794,-22.8398 z m -72.07336,-18.58742 5.27649,-0.36341 -0.29476,-1.91389 c -0.16211,-1.05263 -0.3627,-1.99571 -0.44576,-2.09572 -0.29271,-0.35248 -11.88294,1.11895 -11.88294,1.5086 0,1.75796 0.77245,3.72593 1.37214,3.49581 0.38409,-0.14739 3.07277,-0.43152 5.97483,-0.63139 z m -1.11311,-8.35388 5.15544,-0.64519 0.16012,-2.76097 0.16012,-2.76097 -1.74933,0.0344 c -0.96212,0.019 -3.65636,0.31693 -5.9872,0.66217 -3.84729,0.56986 -4.25431,0.74397 -4.41625,1.88901 -0.2624,1.85548 0.41608,4.90997 1.00921,4.54339 0.28185,-0.17419 2.83239,-0.60704 5.66789,-0.96189 l 0,2e-5 z m -98.75405,-24.46512 c 0.77148,-0.31174 0.90748,-0.74266 0.64401,-2.0406 -0.18369,-0.90498 -0.48293,-3.88042 -0.66497,-6.61211 l -0.331,-4.9667 -3.17184,0.33152 c -1.74451,0.18234 -4.1517,0.33152 -5.34932,0.33152 l -2.17748,0 0.18985,2.38717 c 0.21451,2.69706 0.2333,2.70764 5.90973,3.3283 3.12343,0.34151 3.46025,0.49675 3.62602,1.67114 0.27423,1.94282 -1.18579,2.67836 -5.31647,2.67836 -3.83769,0 -4.04204,0.1809 -3.30458,2.92527 0.26946,1.00275 0.56517,1.04852 4.62795,0.71627 2.38705,-0.19521 4.7802,-0.53277 5.3181,-0.75014 z"
         style="opacity:1;fill:#000000;fill-opacity:1;fill-rule:nonzero;stroke:none;stroke-width:5.9000001;stroke-miterlimit:4;stroke-dasharray:none;stroke-opacity:1" />
      <path
         inkscape:connector-curvature="0"
         id="path4228"
         d="m 685.659,259.9049 c -1.17671,-1.17671 -1.08928,-2.22399 0.24531,-2.93824 0.65118,-0.3485 5.04234,-0.68919 10.5947,-0.822 9.17071,-0.21936 9.48258,-0.19236 9.48258,0.82099 0,1.34881 -2.11918,1.92361 -9.8001,2.65815 -3.20489,0.30649 -6.68852,0.69015 -7.74138,0.85258 -1.36905,0.21121 -2.1612,0.0484 -2.78111,-0.57148 z"
         style="opacity:1;fill:#000000;fill-opacity:1;fill-rule:nonzero;stroke:none;stroke-width:5.9000001;stroke-miterlimit:4;stroke-dasharray:none;stroke-opacity:1" />
      <path
         inkscape:connector-curvature="0"
         id="path4230"
         d="m 689.1727,344.76744 c -1.14424,-2.51134 -0.37451,-2.75017 8.86353,-2.75017 6.99214,0 8.6039,0.14206 9.01579,0.79461 1.16336,1.84309 0.3083,2.04745 -11.96927,2.86062 -5.25912,0.34833 -5.34495,0.33518 -5.91005,-0.90506 z"
         style="opacity:1;fill:#000000;fill-opacity:1;fill-rule:nonzero;stroke:none;stroke-width:5.9000001;stroke-miterlimit:4;stroke-dasharray:none;stroke-opacity:1" />
      <path
         inkscape:connector-curvature="0"
         id="path4232"
         d="m 661.49489,346.6083 c -1.01729,-0.30652 -1.39549,-0.87709 -1.6779,-2.53139 -0.79263,-4.64306 -1.5273,-18.95033 -2.02348,-39.40594 -0.28622,-11.79985 -0.6698,-25.29899 -0.85238,-29.99809 -0.23942,-6.16144 -0.16297,-8.64829 0.27415,-8.91845 0.33337,-0.20603 3.63521,-0.41378 7.33741,-0.46166 9.77358,-0.12639 9.11496,-1.29705 9.11552,16.2023 2.4e-4,7.64805 0.21977,16.40854 0.48785,19.46775 0.26807,3.05922 0.56585,14.25876 0.66172,24.88786 l 0.17432,19.32564 -1.5892,0.77287 c -1.75058,0.85134 -9.79267,1.29647 -11.90801,0.65911 z m 7.12376,-3.79642 1.22106,0 0.23741,-14.96501 c 0.14277,-8.99975 -0.0386,-19.71611 -0.45494,-26.88405 -0.38079,-6.55546 -0.69903,-16.47603 -0.70719,-22.0457 l -0.0148,-10.12666 -3.84058,0.26258 c -2.11231,0.14442 -3.9044,0.31547 -3.98241,0.38012 -0.078,0.0647 0.0999,3.90753 0.39542,8.53975 0.2955,4.63221 0.54141,12.83225 0.54647,18.2223 0.0103,10.92343 0.70452,27.15551 1.64265,38.40578 0.62983,7.55315 1.20809,9.18089 3.0152,8.48744 0.39638,-0.1521 1.27017,-0.27655 1.94175,-0.27655 z"
         style="opacity:1;fill:#000000;fill-opacity:1;fill-rule:nonzero;stroke:none;stroke-width:5.9000001;stroke-miterlimit:4;stroke-dasharray:none;stroke-opacity:1" />
      <path
         inkscape:connector-curvature="0"
         id="path4234"
         d="m 656.97963,258.18117 c -0.29218,-0.21545 -1.18897,-1.36221 -1.99288,-2.54834 -1.44963,-2.13886 -1.46561,-2.25812 -1.9438,-14.50079 -0.51046,-13.06889 -0.34273,-14.51259 1.75137,-15.07456 0.62003,-0.1664 3.8837,-0.30579 7.2526,-0.30977 6.00832,-0.007 6.15217,0.0208 7.53378,1.46293 l 1.40851,1.47016 0.36298,12.54608 0.36298,12.54609 -1.24346,1.8147 c -1.23823,1.80708 -1.26565,1.81628 -6.52255,2.18898 -2.90351,0.20585 -5.53992,0.46922 -5.8587,0.58526 -0.31879,0.11605 -0.81866,0.0347 -1.11083,-0.18074 z m 9.96608,-6.23265 c 0.16671,-1.02734 0.16075,-6.5101 -0.0132,-12.1839 l -0.31636,-10.316 -4.37363,0 -4.37363,0 -0.36616,2.16732 c -0.34098,2.01823 -0.13114,8.2974 0.60471,18.09504 l 0.30833,4.10544 4.11344,0 4.11343,0 0.30312,-1.8679 z"
         style="opacity:1;fill:#000000;fill-opacity:1;fill-rule:nonzero;stroke:none;stroke-width:5.9000001;stroke-miterlimit:4;stroke-dasharray:none;stroke-opacity:1" />
      <path
         inkscape:connector-curvature="0"
         id="path4236"
         d="m 601.26423,327.89043 c -1.01897,-1.09071 -1.22193,-2.19755 -1.73217,-9.44636 -0.52855,-7.50893 -1.86054,-47.04752 -1.73057,-51.36986 0.0962,-3.19832 1.7948,-3.66337 14.14112,-3.87151 l 6.87551,-0.11592 0.70997,2.11894 c 0.52903,1.57889 0.8522,9.59912 1.26799,31.46789 l 0.55801,29.34895 -1.25694,0.9588 c -1.44506,1.10231 -3.15078,1.37021 -11.58677,1.81985 -5.90155,0.31454 -6.12802,0.28608 -7.24615,-0.91078 z m 13.54079,-3.95116 1.65946,-0.3319 -0.28406,-19.93046 c -0.15624,-10.96176 -0.42153,-23.56577 -0.58955,-28.00892 l -0.30548,-8.07846 -5.90375,0.008 c -3.24706,0.004 -6.21955,0.20834 -6.60554,0.45306 -0.52384,0.33212 -0.62319,1.37112 -0.39179,4.09733 0.17051,2.00882 0.54552,10.923 0.83336,19.8093 0.28783,8.8863 0.67726,19.79222 0.8654,24.23537 l 0.34207,8.07846 4.36021,0 c 2.39812,0 5.10697,-0.14936 6.01967,-0.33189 z"
         style="opacity:1;fill:#000000;fill-opacity:1;fill-rule:nonzero;stroke:none;stroke-width:5.9000001;stroke-miterlimit:4;stroke-dasharray:none;stroke-opacity:1" />
      <path
         inkscape:connector-curvature="0"
         id="path4238"
         d="m 561.7953,308.3377 c -1.67508,-0.65217 -1.81277,-1.50475 -2.26043,-13.99656 -0.15661,-4.37031 -0.4408,-10.96431 -0.63153,-14.65333 l -0.34679,-6.7073 2.06588,-0.59056 c 1.13624,-0.32481 4.80985,-0.73698 8.16358,-0.91592 5.30155,-0.28288 6.1934,-0.21003 6.83081,0.558 0.81942,0.98734 1.56608,12.8006 1.61221,25.50753 0.0267,7.36841 0.0137,7.45166 -1.42978,9.11922 -1.42693,1.64846 -1.57067,1.68856 -7.01898,1.95789 -3.30693,0.16347 -6.13909,0.0504 -6.98497,-0.27897 z m 9.50121,-4.19186 c 1.16868,-0.005 1.1919,-0.12681 1.1919,-6.2772 0,-3.44993 -0.1577,-9.91614 -0.35045,-14.36936 l -0.35046,-8.09676 -3.10627,0.32467 c -1.70846,0.17856 -3.63658,0.45769 -4.28473,0.62027 l -1.17845,0.2956 0.6232,9.90851 c 0.34276,5.44968 0.64073,11.78916 0.66217,14.08774 l 0.039,4.17923 2.78111,-0.33405 c 1.52961,-0.18373 3.31746,-0.33612 3.97301,-0.33865 z"
         style="opacity:1;fill:#000000;fill-opacity:1;fill-rule:nonzero;stroke:none;stroke-width:5.9000001;stroke-miterlimit:4;stroke-dasharray:none;stroke-opacity:1" />
      <path
         inkscape:connector-curvature="0"
         id="path4240"
         d="m 562.08621,344.85193 c -0.30571,-0.39364 -0.60552,-1.90762 -0.66623,-3.36439 -0.0607,-1.45677 -0.31576,-5.39005 -0.56678,-8.74063 -0.56612,-7.55661 -0.34404,-8.82259 1.77425,-10.11428 1.32377,-0.80722 2.67642,-1.00658 6.84028,-1.00817 4.86485,-0.002 5.26759,0.0815 6.42454,1.32989 1.48454,1.60185 1.8922,3.40691 1.89749,8.40201 0.002,2.0759 0.25533,5.32346 0.5625,7.2168 0.54029,3.33024 0.51585,3.47912 -0.74969,4.5677 -1.38113,1.18799 -3.09923,1.53132 -10.43464,2.08511 -3.49156,0.26359 -4.6529,0.17812 -5.08172,-0.37404 z m 11.85188,-4.92263 c 0.32073,-0.26885 -1.06109,-12.28339 -1.509,-13.12031 -0.38928,-0.72739 -1.15197,-0.94674 -3.27016,-0.94052 -4.32046,0.0127 -4.26871,-0.0944 -3.82322,7.91486 l 0.38871,6.98852 4.04416,-0.36875 c 2.22429,-0.20281 4.10057,-0.41602 4.16951,-0.4738 z"
         style="opacity:1;fill:#000000;fill-opacity:1;fill-rule:nonzero;stroke:none;stroke-width:5.9000001;stroke-miterlimit:4;stroke-dasharray:none;stroke-opacity:1" />
      <path
         inkscape:connector-curvature="0"
         id="path4242"
         d="m 508.5063,354.06874 c -0.20937,-0.50987 -0.38067,-5.33708 -0.38067,-10.72713 0,-8.28053 0.14519,-10.10304 0.93635,-11.75386 1.0888,-2.27185 1.34747,-2.37507 7.15591,-2.85539 6.84536,-0.56607 7.29926,0.31082 7.76048,14.99261 0.3436,10.93717 0.63402,10.49792 -6.66575,10.0817 -3.56488,-0.20326 -4.80826,-0.0944 -5.26961,0.46154 -0.85702,1.03264 -3.08229,0.90713 -3.53671,-0.19947 z m 10.89172,-5.1663 c 0.0814,-0.0649 -0.0117,-3.66682 -0.20675,-8.00431 l -0.35471,-7.88635 -3.10409,0.17949 -3.1041,0.17948 0,8.15572 0,8.15571 3.31085,-0.33088 c 1.82096,-0.18199 3.37742,-0.38398 3.4588,-0.44886 z"
         style="opacity:1;fill:#000000;fill-opacity:1;fill-rule:nonzero;stroke:none;stroke-width:5.9000001;stroke-miterlimit:4;stroke-dasharray:none;stroke-opacity:1" />
      <path
         inkscape:connector-curvature="0"
         id="path4244"
         d="m 505.29085,321.68041 c -0.43161,-0.27233 -0.9277,-2.26928 -1.24942,-5.02943 -0.52642,-4.51632 -0.51467,-4.60256 0.87523,-6.42482 1.14639,-1.50299 1.77383,-1.85371 3.36836,-1.8828 1.07775,-0.0197 2.67469,-0.11506 3.54875,-0.212 0.87407,-0.0969 3.17489,-0.32348 5.11294,-0.50341 l 3.52373,-0.32716 1.63513,2.06452 c 1.63485,2.06417 1.63506,2.0653 1.24388,6.7429 l -0.39125,4.67839 -1.85407,0.3828 c -2.98088,0.61543 -15.03063,1.00483 -15.81328,0.51101 z m 13.59419,-7.15653 0.16471,-2.59586 -3.60799,0.34072 c -1.98439,0.1874 -4.38272,0.34241 -5.32963,0.34448 -1.64229,0.004 -1.72163,0.0974 -1.72163,2.03442 0,1.11686 0.16723,2.19788 0.37162,2.40227 0.20439,0.2044 2.5286,0.30372 5.16491,0.22073 l 4.7933,-0.1509 0.16471,-2.59586 z"
         style="opacity:1;fill:#000000;fill-opacity:1;fill-rule:nonzero;stroke:none;stroke-width:5.9000001;stroke-miterlimit:4;stroke-dasharray:none;stroke-opacity:1" />
      <path
         inkscape:connector-curvature="0"
         id="path4246"
         d="m 424.10068,355.33723 c -1.27701,-0.24924 -2.48721,-0.71837 -2.68933,-1.04253 -0.20213,-0.32415 -0.53013,-2.10793 -0.7289,-3.96395 -0.57647,-5.38307 -2.64144,-4.80003 22.81553,-6.44192 12.37025,-0.79785 36.05143,-0.70508 36.91116,0.14459 0.38501,0.3805 1.12075,0.85115 1.635,1.04589 1.21064,0.45848 1.97855,2.52724 1.97855,5.33024 0,1.83268 -0.29368,2.48906 -1.64367,3.67366 -1.59756,1.40184 -1.84651,1.44601 -8.87306,1.57454 -16.44697,0.30085 -47.24533,0.10104 -49.40528,-0.32052 z m 54.00677,-4.34017 c 1.29929,-0.22351 1.68423,-0.51666 1.45677,-1.1094 -0.17003,-0.44309 -0.30914,-1.04846 -0.30914,-1.34527 0,-0.53789 -37.86268,-0.21513 -48.60317,0.41432 -4.59314,0.26919 -4.90006,0.35947 -4.90027,1.44148 l -2.2e-4,1.15431 25.29506,-0.12583 c 13.91228,-0.0692 26.08972,-0.26254 27.06097,-0.42961 z"
         style="opacity:1;fill:#000000;fill-opacity:1;fill-rule:nonzero;stroke:none;stroke-width:5.9000001;stroke-miterlimit:4;stroke-dasharray:none;stroke-opacity:1" />
    </g>
    <path
       style="opacity:1;fill:#ff5555;fill-opacity:1;fill-rule:nonzero;stroke:none;stroke-width:5.9000001;stroke-miterlimit:4;stroke-dasharray:none;stroke-opacity:1"
       d="m 164.55354,389.18372 c -7.75005,-5.94942 -19.97152,-16.65644 -27.1588,-23.79337 -15.79466,-15.68401 -23.9217,-30.61227 -24.84619,-45.63905 -0.67064,-10.90065 2.43597,-16.44276 13.78111,-24.58511 5.8537,-4.20117 9.06879,-5.38762 15.94812,-5.88522 10.58464,-0.76562 16.75798,1.1754 27.97706,8.79654 4.77163,3.24139 9.17483,5.89503 9.78488,5.897 0.61005,0.002 5.49215,-2.99713 10.84912,-6.66465 14.84421,-10.16274 26.00147,-12.24185 37.54813,-6.99693 6.77702,3.07837 13.68825,10.46682 15.11748,16.16133 2.97869,11.86803 -4.53594,32.55431 -18.77406,51.68126 -7.01563,9.42454 -40.17903,40.4582 -44.24702,41.40549 -1.03885,0.24192 -8.22978,-4.42786 -15.97983,-10.37729 z"
       id="path4261"
       inkscape:connector-curvature="0"
       inkscape:export-xdpi="300"
       inkscape:export-ydpi="300" />
    <path
       style="opacity:1;fill:#d38d5f;fill-opacity:1;fill-rule:nonzero;stroke:none;stroke-width:5.9000001;stroke-miterlimit:4;stroke-dasharray:none;stroke-opacity:1"
       d="m 356.95331,381.69136 c 0.50872,-8.35029 1.20181,-15.4592 1.5402,-15.79759 0.33839,-0.3384 46.37818,-1.25221 102.31064,-2.0307 213.03526,-2.9651 293.5795,-4.39561 297.63405,-5.28614 l 4.19428,-0.92122 -0.42842,15.48862 -0.42845,15.48862 -68.92255,0.95344 c -37.90741,0.52439 -90.49831,1.71435 -116.86868,2.64435 -40.73405,1.43657 -186.38432,4.6256 -211.86352,4.63877 l -8.0925,0.004 0.92495,-15.18233 z"
       id="path4263"
       inkscape:connector-curvature="0"
       inkscape:export-xdpi="600"
       inkscape:export-ydpi="600" />
    <path
       style="opacity:1;fill:#ffdd55;fill-opacity:1;fill-rule:nonzero;stroke:none;stroke-width:5.9000001;stroke-miterlimit:4;stroke-dasharray:none;stroke-opacity:1"
       d="m 699.65849,334.35813 -14.13336,-0.14355 -0.29953,-2.77253 c -0.16474,-1.52489 -0.54718,-6.94419 -0.84986,-12.04288 -0.30268,-5.0987 -0.90238,-13.56122 -1.33267,-18.80559 -0.97194,-11.84614 -1.814,-32.92569 -1.82306,-45.63762 l -0.007,-9.61564 3.04597,-0.29958 c 6.59819,-0.64895 18.88285,-0.95158 24.1245,-0.59431 l 5.52066,0.37629 0.42225,33.18278 c 0.60908,47.86409 0.60833,56.39469 -0.005,56.44914 -0.29135,0.0258 -6.88974,-0.0176 -14.66309,-0.0965 z m -3.61276,-74.85211 c 7.12825,-0.7494 9.53523,-1.36285 9.53523,-2.43018 0,-0.73429 -1.13108,-0.80977 -9.52256,-0.6355 -8.09885,0.16819 -9.65776,0.33295 -10.42685,1.10205 -0.85257,0.85257 -0.84713,0.96746 0.0951,2.00861 0.77841,0.86012 1.41482,1.0419 2.87814,0.82205 1.0333,-0.15524 4.38173,-0.54541 7.44095,-0.86703 z"
       id="path4265"
       inkscape:connector-curvature="0"
       inkscape:export-xdpi="600"
       inkscape:export-ydpi="600" />
    <path
       style="opacity:1;fill:#ffdd55;fill-opacity:1;fill-rule:nonzero;stroke:none;stroke-width:5.9000001;stroke-miterlimit:4;stroke-dasharray:none;stroke-opacity:1"
       d="m 686.75644,356.88716 c -0.14779,-0.38515 -0.32319,-4.62007 -0.38976,-9.41092 l -0.12104,-8.71065 2.11894,-0.36908 c 1.16541,-0.20299 7.63016,-0.54314 14.36611,-0.75587 l 12.24716,-0.3868 0.32258,4.44847 c 0.17742,2.44665 0.47334,6.74684 0.6576,9.55597 l 0.33501,5.1075 -7.07768,0.30793 c -21.22967,0.92366 -22.18291,0.93271 -22.45892,0.21345 z M 697.8998,345.3515 c 3.49625,-0.2847 7.01237,-0.65744 7.81359,-0.82831 1.59193,-0.33949 1.95069,-1.51281 0.61885,-2.02388 -1.09145,-0.41883 -15.24368,-0.41883 -16.33513,0 -0.99138,0.38042 -1.09968,1.85349 -0.20225,2.75092 0.75374,0.75373 0.18041,0.74657 8.10494,0.10127 z"
       id="path4267"
       inkscape:connector-curvature="0"
       inkscape:export-xdpi="600"
       inkscape:export-ydpi="600" />
    <path
       style="opacity:1;fill:#2c89a0;fill-opacity:1;fill-rule:nonzero;stroke:none;stroke-width:5.9000001;stroke-miterlimit:4;stroke-dasharray:none;stroke-opacity:1"
       d="m 654.54746,353.16976 c -1.00087,-13.04708 -1.45784,-21.88008 -2.19931,-42.51122 -0.45026,-12.52823 -1.05328,-26.71188 -1.34005,-31.51922 -0.58345,-9.78097 -1.73065,-64.12288 -1.36147,-64.49206 0.26492,-0.26492 8.41257,-0.91898 18.13685,-1.45595 l 6.43538,-0.35536 0.32714,2.02976 c 0.70639,4.38292 1.93966,27.9075 2.45307,46.79236 0.55903,20.56276 0.77264,24.4583 2.58528,47.1464 1.26504,15.83412 3.21801,44.3097 3.21801,46.92069 l 0,1.81491 -13.95982,0 -13.95982,0 -0.33526,-4.37031 z m 18.71997,-7.36333 1.58891,-0.5539 0.0109,-6.7023 c 0.0127,-7.79834 -0.98341,-52.4353 -1.41878,-63.57432 -0.393,-10.05488 -0.11131,-9.75492 -8.93932,-9.51957 -3.77876,0.10074 -6.79783,0.41882 -7.12926,0.75111 -0.97692,0.97947 1.36583,71.74693 2.56742,77.55415 0.56086,2.71061 2.05973,3.30478 7.36056,2.9178 2.40383,-0.17549 5.08562,-0.56833 5.95952,-0.87297 z m -9.30883,-88.15826 c 4.39217,-0.34268 4.8396,-0.48674 6.27421,-2.02012 1.52866,-1.63393 1.54148,-1.70029 1.23007,-6.3677 -0.17308,-2.5941 -0.31468,-8.13269 -0.31468,-12.30797 l 0,-7.59142 -1.51914,-1.70021 -1.51914,-1.70021 -6.7349,0.0736 c -4.64833,0.0508 -6.99168,0.28669 -7.56367,0.76141 -0.72478,0.60151 -0.79155,2.2502 -0.53216,13.13998 0.16314,6.8487 0.53205,13.06157 0.81981,13.80638 0.84838,2.19586 3.30159,4.79802 4.264,4.52288 0.47639,-0.13619 2.99441,-0.41367 5.5956,-0.61662 z"
       id="path4269"
       inkscape:connector-curvature="0"
       inkscape:export-xdpi="600"
       inkscape:export-ydpi="600" />
    <path
       style="opacity:1;fill:#53676c;fill-opacity:1;fill-rule:nonzero;stroke:none;stroke-width:5.9000001;stroke-miterlimit:4;stroke-dasharray:none;stroke-opacity:1"
       d="m 639.70809,356.61304 c -0.14143,-0.50987 -0.4054,-4.74113 -0.58659,-9.40279 -0.44044,-11.33162 -1.18156,-22.15839 -2.39326,-34.9625 -0.55144,-5.82709 -1.07789,-13.57446 -1.16988,-17.21639 l -0.16727,-6.62168 6.14113,-0.14853 6.14112,-0.14852 0.33252,8.88915 c 0.18288,4.88903 0.57973,15.683 0.88187,23.98659 0.54827,15.06765 1.3154,28.37498 1.94411,33.7243 l 0.3323,2.8274 -5.59945,0 c -4.8817,0 -5.63242,-0.11883 -5.8566,-0.92703 z"
       id="path4271"
       inkscape:connector-curvature="0"
       inkscape:export-xdpi="600"
       inkscape:export-ydpi="600" />
    <path
       style="opacity:1;fill:#53676c;fill-opacity:1;fill-rule:nonzero;stroke:none;stroke-width:5.9000001;stroke-miterlimit:4;stroke-dasharray:none;stroke-opacity:1"
       d="m 635.23055,283.25566 c -0.32952,-1.23748 -0.27237,-1.84608 0.19999,-2.12991 0.77797,-0.46745 11.2395,-1.75576 11.53633,-1.42067 0.11149,0.12586 0.362,1.11038 0.55669,2.18781 0.34314,1.89898 0.30068,1.96708 -1.3865,2.22398 -0.95726,0.14576 -3.69903,0.40144 -6.09282,0.56817 l -4.35234,0.30315 -0.46135,-1.73253 z"
       id="path4273"
       inkscape:connector-curvature="0"
       inkscape:export-xdpi="600"
       inkscape:export-ydpi="600" />
    <path
       style="opacity:1;fill:#53676c;fill-opacity:1;fill-rule:nonzero;stroke:none;stroke-width:5.9000001;stroke-miterlimit:4;stroke-dasharray:none;stroke-opacity:1"
       d="m 634.90268,276.14244 c -0.1684,-0.43885 -0.30619,-1.71588 -0.30619,-2.83783 0,-1.48277 0.2532,-2.11652 0.92704,-2.3204 1.62037,-0.49026 7.74753,-1.37196 9.56291,-1.37612 l 1.74932,-0.004 -0.16012,2.78111 -0.16011,2.78111 -3.70815,0.59274 c -7.69979,1.23079 -7.58172,1.22506 -7.9047,0.38339 z"
       id="path4275"
       inkscape:connector-curvature="0"
       inkscape:export-xdpi="600"
       inkscape:export-ydpi="600" />
    <path
       style="opacity:1;fill:#008066;fill-opacity:1;fill-rule:nonzero;stroke:none;stroke-width:5.9000001;stroke-miterlimit:4;stroke-dasharray:none;stroke-opacity:1"
       d="m 594.86638,358.12748 c -0.6316,-0.43526 -0.83148,-2.16882 -0.97436,-8.45063 l -0.17976,-7.90305 9.71499,-0.36599 c 17.83158,-0.67177 22.69348,-1.592 22.69348,-4.29527 l 0,-1.41115 -3.84057,0.31802 c -2.11232,0.17491 -9.48282,0.47151 -16.37889,0.6591 l -12.53831,0.34107 -0.28492,-2.32096 c -0.15671,-1.27652 -0.4253,-5.4199 -0.59688,-9.2075 -0.17157,-3.78761 -1.14582,-18.32883 -2.165,-32.31383 -1.01918,-13.985 -1.99555,-27.83257 -2.16971,-30.77239 l -0.31667,-5.34512 12.39136,-0.32434 c 6.81525,-0.17839 15.92643,-0.61704 20.24708,-0.97478 6.30264,-0.52185 7.93725,-0.51854 8.26809,0.0168 0.47036,0.76105 0.76646,5.44522 1.89535,29.98357 0.80015,17.39254 2.90775,44.55739 4.05203,52.22661 0.32995,2.21141 0.44781,4.62677 0.2619,5.36748 -0.30612,1.2197 -0.67582,1.38519 -3.91926,1.75438 -1.96969,0.22421 -8.70367,0.55022 -14.96439,0.72448 -9.5933,0.26701 -11.40732,0.44337 -11.53704,1.12167 -0.0847,0.44267 0.16472,1.24062 0.55417,1.77321 0.59904,0.81925 1.72303,1.0104 7.29916,1.24137 3.6251,0.15015 10.03206,0.0121 14.2377,-0.30683 4.20565,-0.31891 7.69787,-0.52456 7.7605,-0.45701 0.0626,0.0675 0.28182,1.93667 0.48708,4.1536 l 0.3732,4.03077 -3.10122,0.32964 c -6.07565,0.6458 -36.4414,0.9775 -37.26911,0.40711 z m 17.413,-29.73531 c 3.84813,-0.34061 6.56705,-0.85414 7.52813,-1.42187 l 1.50444,-0.88869 -0.27061,-12.21428 c -0.62402,-28.16584 -1.29555,-47.27721 -1.71354,-48.76598 l -0.44619,-1.58921 -8.7761,0.0781 c -6.22468,0.0554 -9.21506,0.28993 -10.28598,0.8068 l -1.50987,0.72872 0.0839,12.9663 c 0.0977,15.09545 1.09292,40.56901 1.77933,45.54501 0.76183,5.5227 1.25331,5.71574 12.10645,4.75512 z"
       id="path4277"
       inkscape:connector-curvature="0"
       inkscape:export-xdpi="600"
       inkscape:export-ydpi="600" />
    <path
       style="opacity:1;fill:#008066;fill-opacity:1;fill-rule:nonzero;stroke:none;stroke-width:5.9000001;stroke-miterlimit:4;stroke-dasharray:none;stroke-opacity:1"
       d="m 552.26194,355.07999 c -1.86131,-19.62483 -3.02237,-42.24711 -3.50071,-68.20807 -0.28936,-15.70483 -0.46324,-28.61329 -0.38638,-28.68547 0.18411,-0.17292 27.94325,-1.29599 32.03308,-1.29599 l 3.17557,0 0.36572,7.01898 c 0.20115,3.86045 1.08151,16.91179 1.95637,29.00298 2.05387,28.38626 4.13438,63.10502 3.8292,63.90031 -0.24852,0.64764 -5.17406,0.94323 -26.1958,1.57208 l -10.93259,0.32704 -0.34446,-3.63186 z m 21.07663,-10.61679 c 1.47932,-0.18303 3.12196,-0.79344 3.8602,-1.43446 l 1.28509,-1.11584 -0.58156,-7.94603 c -0.86992,-11.88601 -1.07455,-12.16247 -8.93537,-12.0716 -7.0677,0.0817 -7.68786,0.6043 -7.89108,6.64962 -0.22262,6.6225 0.63328,15.75072 1.534,16.36013 0.68954,0.46654 4.7328,0.30004 10.72872,-0.44182 z m -2.75592,-36.18847 c 2.83565,0 3.34932,-0.17348 4.79547,-1.61963 l 1.61964,-1.61964 -0.29441,-14.93458 c -0.16193,-8.21401 -0.50848,-15.64971 -0.77012,-16.52378 l -0.47571,-1.5892 -4.7206,-0.15484 c -4.31876,-0.14166 -11.11924,0.52933 -11.74918,1.15927 -0.14322,0.14322 0.0835,7.76977 0.50389,16.9479 0.52852,11.53986 0.96783,16.93275 1.42413,17.48256 0.62238,0.74993 4.24503,1.389 5.78556,1.02064 0.38803,-0.0928 2.13462,-0.1687 3.88133,-0.1687 z"
       id="path4279"
       inkscape:connector-curvature="0"
       inkscape:export-xdpi="600"
       inkscape:export-ydpi="600" />
    <path
       style="opacity:1;fill:#80e5ff;fill-opacity:1;fill-rule:nonzero;stroke:none;stroke-width:5.9000001;stroke-miterlimit:4;stroke-dasharray:none;stroke-opacity:1"
       d="m 535.84956,352.90489 c -0.18902,-3.71476 -0.47386,-7.85311 -0.63298,-9.19633 l -0.28929,-2.44222 2.22481,-0.35575 c 3.1515,-0.50395 4.30615,-1.23685 4.11077,-2.60925 -0.13234,-0.92958 -0.68345,-1.25338 -2.81325,-1.65288 -1.45677,-0.27326 -2.79508,-0.7117 -2.97403,-0.97432 -0.44547,-0.65378 -0.88016,-10.49307 -1.78388,-40.37791 -0.42291,-13.985 -0.92409,-28.72838 -1.11374,-32.76308 l -0.3448,-7.33581 1.16923,0.62576 c 0.70688,0.37831 2.85677,0.56181 5.43682,0.46404 3.84641,-0.14574 4.30491,-0.0586 4.64576,0.88297 0.208,0.57458 0.52566,12.01019 0.70592,25.41249 0.18026,13.40229 0.68511,29.73136 1.12189,36.28683 0.43678,6.55547 0.79951,14.80849 0.80606,18.34004 l 0.0119,6.42101 -2.55546,0.33899 c -3.323,0.44081 -4.58309,1.34741 -4.07924,2.9349 0.35434,1.11641 0.63129,1.18944 3.86472,1.0191 4.06957,-0.21439 3.976,-0.35306 4.61232,6.83535 l 0.37263,4.20949 -3.30413,0.34535 c -1.81727,0.18995 -4.55158,0.34535 -6.07625,0.34535 l -2.77211,0 -0.34369,-6.75412 z"
       id="path4285"
       inkscape:connector-curvature="0"
       inkscape:export-xdpi="600"
       inkscape:export-ydpi="600" />
    <path
       style="opacity:1;fill:#80e5ff;fill-opacity:1;fill-rule:nonzero;stroke:none;stroke-width:5.9000001;stroke-miterlimit:4;stroke-dasharray:none;stroke-opacity:1"
       d="m 533.05619,252.22468 c -0.75669,-0.47084 -1.05845,-2.29193 -0.5216,-3.14781 0.23986,-0.38241 1.5066,-0.66217 2.99827,-0.66217 3.63088,0 5.30057,-0.73211 5.30057,-2.32413 0,-1.10098 -0.31174,-1.33671 -2.11894,-1.60232 -1.16542,-0.17129 -3.08728,-0.45408 -4.27081,-0.62842 -2.27647,-0.33535 -3.14548,-1.50128 -3.14548,-4.22024 0,-1.13667 0.23592,-1.2903 1.98651,-1.29362 1.09257,-0.002 3.55935,-0.15235 5.48172,-0.33395 l 3.49523,-0.33019 0.40352,5.234 c 0.67028,8.69392 0.70714,8.27964 -0.77228,8.67904 -2.19866,0.59358 -8.20676,1.02179 -8.83671,0.62981 z"
       id="path4287"
       inkscape:connector-curvature="0"
       inkscape:export-xdpi="600"
       inkscape:export-ydpi="600" />
    <path
       style="opacity:1;fill:#d45500;fill-opacity:1;fill-rule:nonzero;stroke:none;stroke-width:5.9000001;stroke-miterlimit:4;stroke-dasharray:none;stroke-opacity:1"
       d="m 498.8041,358.62522 c -0.18086,-0.90429 -0.45723,-11.70916 -0.61416,-24.01082 -0.15692,-12.30166 -0.40134,-24.33329 -0.54314,-26.73697 l -0.25781,-4.37031 16.05531,0 16.05531,0 1.22482,27.83871 c 0.67365,15.31129 1.05878,28.00506 0.85585,28.20838 -0.20294,0.20332 -7.58661,0.44741 -16.40816,0.54242 l -16.03919,0.17275 -0.32883,-1.64416 z m 18.45613,-4.62665 c 4.11034,-0.16916 5.44572,-0.41299 5.95951,-1.08818 1.43293,-1.88302 0.47549,-20.18124 -1.18887,-22.72137 -0.73229,-1.11763 -1.21841,-1.25463 -4.45177,-1.25463 -5.40246,0 -6.89625,0.43195 -8.05276,2.32853 -0.89581,1.46906 -1.00299,2.7794 -1.00476,12.28333 -0.001,5.85136 0.1739,10.81471 0.38885,11.02967 0.21496,0.21496 0.9897,0.22204 1.72164,0.0157 0.73195,-0.2063 3.71461,-0.47319 6.62816,-0.59309 z m 5.29359,-33.09473 c 0.17089,-0.17089 0.45523,-2.35867 0.63187,-4.86173 0.31003,-4.39316 0.27006,-4.61804 -1.15248,-6.48308 l -1.47365,-1.93206 -6.15242,0.35214 c -7.24294,0.41455 -8.63001,0.8554 -9.85635,3.13257 -0.80582,1.49633 -0.84322,2.17033 -0.31079,5.60189 0.33288,2.1455 0.74801,4.13191 0.92251,4.41425 0.33656,0.54456 16.83525,0.33208 17.39131,-0.22398 z"
       id="path4289"
       inkscape:connector-curvature="0"
       inkscape:export-xdpi="600"
       inkscape:export-ydpi="600" />
    <path
       style="opacity:1;fill:#ff5555;fill-opacity:1;fill-rule:nonzero;stroke:none;stroke-width:5.9000001;stroke-miterlimit:4;stroke-dasharray:none;stroke-opacity:1"
       d="m 429.91056,334.09931 c -0.15027,-1.23826 -0.38603,-3.62206 -0.52392,-5.29735 l -0.25071,-3.04598 2.27435,0 2.27435,0 0.26862,3.75423 c 0.30166,4.21619 1.14732,5.59097 3.06477,4.98239 1.13627,-0.36064 1.17715,-0.56857 0.90171,-4.58717 l -0.28852,-4.20941 1.6328,0.16242 c 1.46972,0.14619 1.73134,0.45901 2.61927,3.13185 0.70086,2.1097 1.36967,3.14403 2.31003,3.57249 1.73122,0.78879 2.05216,-0.0156 1.67329,-4.19374 l -0.28498,-3.14279 17.89186,0 17.89186,0 0.28126,2.49534 c 0.18885,1.67547 0.65511,2.79806 1.41912,3.41671 1.92988,1.56273 2.67528,0.73185 2.67528,-2.98203 l 0,-3.31345 3.526,-0.36125 c 1.9393,-0.19868 3.70589,-0.17201 3.92576,0.0593 0.21987,0.23129 0.48062,2.6131 0.57945,5.29291 l 0.17968,4.87237 -3.17841,0.29179 c -4.40476,0.40436 -40.54115,1.35276 -51.54368,1.35276 l -9.04604,0 -0.2732,-2.25137 z"
       id="path4291"
       inkscape:connector-curvature="0"
       inkscape:export-xdpi="600"
       inkscape:export-ydpi="600" />
    <path
       style="opacity:1;fill:#ac9393;fill-opacity:1;fill-rule:nonzero;stroke:none;stroke-width:5.9000001;stroke-miterlimit:4;stroke-dasharray:none;stroke-opacity:1"
       d="m 386.94546,361.33026 c -2.11769,-0.3467 -2.11915,-0.34863 -2.46385,-3.26045 -0.48916,-4.13203 -0.52714,-15.7823 -0.0524,-16.07174 0.21851,-0.13322 1.94677,-0.40718 3.84057,-0.60879 l 3.44328,-0.36658 -0.18585,7.25917 c -0.15546,6.07175 -0.0331,7.59783 0.74775,9.32954 0.87437,1.939 2.93266,3.23237 3.78601,2.37902 0.17906,-0.17906 0.0267,-1.9979 -0.33858,-4.04187 -0.67387,-3.77073 -0.35905,-12.92121 0.49192,-14.2981 0.84365,-1.36506 1.5907,0.15167 1.5907,3.22957 0,3.97929 1.35587,10.65567 2.69846,13.28736 0.93583,1.83439 3.19536,3.19067 3.99065,2.39538 0.15562,-0.15562 -0.33225,-2.7225 -1.08414,-5.70418 -1.49101,-5.91265 -1.85208,-12.54396 -0.70492,-12.94634 0.75999,-0.26657 48.40962,-1.68218 74.16288,-2.20328 l 17.34881,-0.35105 0,10.08568 c 0,7.66565 -0.16642,10.2238 -0.69354,10.66128 -0.47308,0.39262 -9.10322,0.62507 -27.14891,0.73124 -14.55045,0.0856 -37.89764,0.30986 -51.88264,0.49834 -13.985,0.18849 -26.3808,0.18659 -27.54621,-0.004 z m 95.04675,-7.28055 c 1.41795,-1.19312 1.62985,-1.7142 1.62985,-4.00784 0,-3.22171 -0.59426,-4.41792 -2.74806,-5.53169 -1.42703,-0.73795 -3.90786,-0.85048 -17.86284,-0.81026 -16.49643,0.0476 -37.59003,1.20333 -40.7059,2.23039 -1.47266,0.48543 -1.71723,0.81053 -1.69111,2.24805 0.0679,3.73854 0.75221,5.88104 2.09542,6.56065 1.00867,0.51034 7.91711,0.66834 29.48506,0.67432 l 28.16774,0.008 1.62984,-1.37143 z"
       id="path4293"
       inkscape:connector-curvature="0"
       inkscape:export-xdpi="600"
       inkscape:export-ydpi="600" />
    <path
       style="opacity:1;fill:#ffffff;fill-opacity:1;fill-rule:nonzero;stroke:none;stroke-width:5.9000001;stroke-miterlimit:4;stroke-dasharray:none;stroke-opacity:1"
       d="m 425.66971,350.69542 c 0,-0.91903 0.1158,-1.08321 0.95759,-1.35763 0.52667,-0.1717 4.13971,-0.44152 8.02898,-0.5996 10.07679,-0.40959 38.35978,-0.73203 41.74782,-0.47595 l 2.85509,0.2158 0.19984,0.90988 c 0.14805,0.67405 0.0733,1.00241 -0.28843,1.26691 -0.71801,0.52502 -6.39318,0.6878 -31.3291,0.89861 l -22.17179,0.18744 0,-1.04546 z"
       id="path4297"
       inkscape:connector-curvature="0"
       inkscape:export-xdpi="600"
       inkscape:export-ydpi="600" />
    <path
       style="opacity:1;fill:#ffffff;fill-opacity:1;fill-rule:nonzero;stroke:none;stroke-width:5.9000001;stroke-miterlimit:4;stroke-dasharray:none;stroke-opacity:1"
       d="m 509.64262,317.23846 -1.03125,-0.19212 -0.0864,-2.12734 c -0.10143,-2.49759 -0.422,-2.30825 4.3587,-2.5744 1.70155,-0.0947 3.81098,-0.25648 4.68761,-0.35945 l 1.59388,-0.18722 -0.20028,2.6056 c -0.11015,1.43309 -0.23075,2.63035 -0.26799,2.66059 -0.22105,0.1795 -8.20175,0.33317 -9.05428,0.17434 z"
       id="path4299"
       inkscape:connector-curvature="0"
       inkscape:export-xdpi="600"
       inkscape:export-ydpi="600" />
    <path
       style="opacity:1;fill:#ffffff;fill-opacity:1;fill-rule:nonzero;stroke:none;stroke-width:5.9000001;stroke-miterlimit:4;stroke-dasharray:none;stroke-opacity:1"
       d="m 512.58903,341.54213 c 0,-4.47874 0.0331,-8.15722 0.0737,-8.17439 0.0405,-0.0172 1.4314,-0.11661 3.09084,-0.22098 2.19478,-0.13804 3.05338,-0.0952 3.14998,0.15724 0.073,0.19085 0.22657,3.7834 0.34117,7.98344 l 0.20836,7.63643 -0.86021,0.17204 c -0.47311,0.0946 -2.01751,0.26594 -3.432,0.38071 l -2.5718,0.20868 0,-8.14317 z"
       id="path4301"
       inkscape:connector-curvature="0"
       inkscape:export-xdpi="600"
       inkscape:export-ydpi="600" />
    <path
       style="opacity:1;fill:#ffffff;fill-opacity:1;fill-rule:nonzero;stroke:none;stroke-width:5.9000001;stroke-miterlimit:4;stroke-dasharray:none;stroke-opacity:1"
       d="m 564.44128,301.69188 c -0.003,-1.76438 -0.19596,-6.52269 -0.4297,-10.57401 -0.91153,-15.79911 -0.88335,-14.46831 -0.31103,-14.68793 0.73934,-0.28371 7.82355,-1.16691 7.99386,-0.9966 0.47594,0.47594 1.04671,26.79518 0.60918,28.09044 -0.17914,0.5303 -0.52387,0.64682 -2.37715,0.80348 -1.1922,0.10077 -2.91302,0.27083 -3.82405,0.3779 l -1.6564,0.19468 -0.005,-3.20796 z"
       id="path4303"
       inkscape:connector-curvature="0"
       inkscape:export-xdpi="600"
       inkscape:export-ydpi="600" />
    <path
       style="opacity:1;fill:#ffffff;fill-opacity:1;fill-rule:nonzero;stroke:none;stroke-width:5.9000001;stroke-miterlimit:4;stroke-dasharray:none;stroke-opacity:1"
       d="m 565.45883,337.30297 c -0.12311,-1.90413 -0.23564,-5.01409 -0.25004,-6.91104 -0.0324,-4.25955 0.0836,-4.435 3.04158,-4.60214 2.22712,-0.12585 3.99772,0.30278 4.27904,1.03587 0.25152,0.65547 1.2796,8.96687 1.3962,11.28757 l 0.0962,1.91517 -3.09373,0.34061 c -1.70156,0.18733 -3.57787,0.35307 -4.16958,0.3683 l -1.07584,0.0277 -0.22386,-3.46204 z"
       id="path4305"
       inkscape:connector-curvature="0"
       inkscape:export-xdpi="600"
       inkscape:export-ydpi="600" />
    <path
       style="opacity:1;fill:#ffffff;fill-opacity:1;fill-rule:nonzero;stroke:none;stroke-width:5.9000001;stroke-miterlimit:4;stroke-dasharray:none;stroke-opacity:1"
       d="m 604.12255,319.21338 c -0.10651,-2.8124 -0.45755,-12.60472 -0.78007,-21.76071 -0.32253,-9.156 -0.72868,-19.26828 -0.90255,-22.47175 -0.17387,-3.20347 -0.23419,-6.08267 -0.13404,-6.39823 0.25175,-0.79317 1.18629,-0.91506 7.51493,-0.98012 l 5.45087,-0.056 0.19474,3.5357 c 0.1071,1.94463 0.33709,11.02697 0.51108,20.18296 0.17399,9.15599 0.39028,20.17708 0.48064,24.49131 l 0.1643,7.84405 -0.67538,0.21949 c -0.37146,0.12072 -3.14036,0.28413 -6.15312,0.36314 l -5.47775,0.14366 -0.19365,-5.11346 z"
       id="path4307"
       inkscape:connector-curvature="0"
       inkscape:export-xdpi="600"
       inkscape:export-ydpi="600" />
    <path
       style="opacity:1;fill:#ffffff;fill-opacity:1;fill-rule:nonzero;stroke:none;stroke-width:5.9000001;stroke-miterlimit:4;stroke-dasharray:none;stroke-opacity:1"
       d="m 658.30869,253.18274 c -0.61558,-2.93076 -1.15551,-21.26965 -0.67663,-22.98206 l 0.2266,-0.81026 4.37438,0 4.37439,0 0.19791,4.19864 c 0.27132,5.75621 0.29129,18.45509 0.0306,19.44636 l -0.21311,0.81026 -4.08743,0 c -4.00113,0 -4.09037,-0.014 -4.22668,-0.66294 z"
       id="path4309"
       inkscape:connector-curvature="0"
       inkscape:export-xdpi="600"
       inkscape:export-ydpi="600" />
    <path
       style="opacity:1;fill:#ffffff;fill-opacity:1;fill-rule:nonzero;stroke:none;stroke-width:5.9000001;stroke-miterlimit:4;stroke-dasharray:none;stroke-opacity:1"
       d="m 665.26734,342.88136 c -0.31954,-0.31954 -0.73256,-1.28773 -0.91781,-2.15154 -0.95484,-4.45228 -2.01956,-23.54544 -2.37188,-42.5339 -0.14439,-7.7822 -0.42773,-17.36704 -0.62964,-21.29965 -0.22701,-4.42156 -0.26224,-7.25414 -0.0923,-7.42257 0.15113,-0.1498 1.94494,-0.36461 3.98625,-0.47737 l 3.71147,-0.205 0.19201,13.37308 c 0.1056,7.3552 0.31689,15.36192 0.46953,17.79271 0.49596,7.89821 0.69382,21.57159 0.46739,32.29917 l -0.22153,10.49568 -1.5134,0.16082 c -0.83237,0.0885 -1.73517,0.24828 -2.00624,0.35519 -0.30301,0.1195 -0.71662,-0.0294 -1.07382,-0.38662 z"
       id="path4311"
       inkscape:connector-curvature="0"
       inkscape:export-xdpi="600"
       inkscape:export-ydpi="600" />
  </g>
</svg>
