<?xml version="1.0" encoding="UTF-8" standalone="no"?>
<!-- Created with Inkscape (http://www.inkscape.org/) -->

<svg
   xmlns:dc="http://purl.org/dc/elements/1.1/"
   xmlns:cc="http://creativecommons.org/ns#"
   xmlns:rdf="http://www.w3.org/1999/02/22-rdf-syntax-ns#"
   xmlns:svg="http://www.w3.org/2000/svg"
   xmlns="http://www.w3.org/2000/svg"
   xmlns:sodipodi="http://sodipodi.sourceforge.net/DTD/sodipodi-0.dtd"
   xmlns:inkscape="http://www.inkscape.org/namespaces/inkscape"
   width="210mm"
   height="297mm"
   viewBox="0 0 744.09448819 1052.3622047"
   id="svg4332"
   version="1.1"
   inkscape:version="0.91 r13725"
   sodipodi:docname="Locker.svg">
  <defs
     id="defs4334" />
  <sodipodi:namedview
     id="base"
     pagecolor="#ffffff"
     bordercolor="#666666"
     borderopacity="1.0"
     inkscape:pageopacity="0.0"
     inkscape:pageshadow="2"
     inkscape:zoom="1.3840904"
     inkscape:cx="342.36024"
     inkscape:cy="636.00773"
     inkscape:document-units="px"
     inkscape:current-layer="layer1"
     showgrid="false"
     inkscape:window-width="1440"
     inkscape:window-height="851"
     inkscape:window-x="0"
     inkscape:window-y="1"
     inkscape:window-maximized="1" />
  <metadata
     id="metadata4337">
    <rdf:RDF>
      <cc:Work
         rdf:about="">
        <dc:format>image/svg+xml</dc:format>
        <dc:type
           rdf:resource="http://purl.org/dc/dcmitype/StillImage" />
        <dc:title></dc:title>
      </cc:Work>
    </rdf:RDF>
  </metadata>
  <g
     inkscape:label="Ebene 1"
     inkscape:groupmode="layer"
     id="layer1">
    <path
       style="opacity:1;fill:#000000;fill-opacity:1;fill-rule:nonzero;stroke:none;stroke-width:5.9000001;stroke-miterlimit:4;stroke-dasharray:none;stroke-opacity:1"
       d="m 307.06944,620.89722 c -1.36273,-0.82001 -2.63492,-1.63773 -2.82709,-1.81716 -0.83705,-0.78158 -1.51248,-22.87673 -2.18248,-71.39539 -0.881,-63.79742 -1.46802,-79.53657 -3.94772,-105.84568 l -1.94076,-20.59114 0.0944,-64.25865 0.0944,-64.25865 1.73075,-1.73075 c 1.70742,-1.70742 1.99657,-1.73911 21.45567,-2.35152 10.8487,-0.34143 23.95152,-0.79874 29.11737,-1.01625 17.32502,-0.72945 76.87508,-2.46704 87.1898,-2.54407 3.14919,-0.0348 3.5559,-0.36082 7.42872,-0.1546 1.56702,0 1.72036,6.02236 3.67374,107.05339 0.58007,30.00165 1.37992,62.0263 1.77745,71.16587 0.43321,9.95996 0.54581,39.19484 0.28104,72.97211 -0.72526,92.52497 -0.49745,83.4602 -2.12147,84.41914 -1.04336,0.61608 -19.05522,0.83541 -68.60694,0.83541 -36.95568,0 -67.54024,0.22699 -67.96569,0.50442 -0.42545,0.27744 -1.8885,-0.16648 -3.25123,-0.98648 z m 58.21199,-4.13455 c 46.35837,0.36141 78.31227,0.23977 78.85221,-0.30017 0.43043,-0.43043 0.95304,-63.77324 0.95788,-116.10133 10e-4,-15.69623 -0.30055,-36.01643 -0.67113,-45.15601 -0.37056,-9.13957 -0.85693,-26.04598 -1.08079,-37.5698 -0.22387,-11.52381 -0.72766,-35.25781 -1.11953,-52.74221 -0.39187,-17.48441 -0.86734,-40.4056 -1.05662,-50.93598 -0.18926,-10.53038 -0.56356,-20.40236 -0.83177,-21.93773 l -0.48766,-2.79158 -18.85764,0.46455 c -10.37171,0.25551 -26.01036,0.77661 -34.75257,1.158 -8.7422,0.38139 -21.90969,0.8621 -29.26109,1.06824 -31.42623,0.88123 -53.19634,1.75099 -54.28517,2.16882 -0.84691,0.32499 -1.28998,1.77979 -1.60876,5.28226 -0.24197,2.65856 -0.47778,31.16872 -0.52403,63.35593 -0.0702,48.82656 0.10851,60.49722 1.07844,70.44337 2.76519,28.35583 3.3149,35.50824 3.33173,43.34977 0.01,4.56979 0.34017,13.18555 0.73413,19.14615 0.39397,5.96059 0.71802,26.28079 0.72012,45.15601 0.003,30.26083 0.98548,70.54338 1.82499,74.85399 0.28849,1.48135 0.56252,1.51141 10.6043,1.16337 5.66948,-0.1965 26.56431,-0.23055 46.43296,-0.0756 z"
       id="path4979"
       inkscape:connector-curvature="0"
       sodipodi:nodetypes="ccsscccsssccsssssccccscssssscssssssscscsscc"
       inkscape:export-xdpi="300"
       inkscape:export-ydpi="300" />
    <path
       style="opacity:1;fill:#000000;fill-opacity:1;fill-rule:nonzero;stroke:none;stroke-width:5.9000001;stroke-miterlimit:4;stroke-dasharray:none;stroke-opacity:1"
       d="m 399.59999,604.29596 c -4.96716,-0.32901 -24.47455,-0.86959 -43.34977,-1.20126 -18.87521,-0.33169 -34.861,-0.84839 -35.52399,-1.14824 -1.98546,-0.89798 -2.68858,-6.28981 -3.49579,-26.80694 -0.42211,-10.72906 -0.9349,-20.2784 -1.13952,-21.22073 -0.20463,-0.94234 -0.36312,-17.52363 -0.35221,-36.84731 0.0141,-24.9383 -0.30339,-39.43207 -1.09399,-49.94513 -1.64272,-21.84416 -2.63258,-124.32761 -1.43317,-148.38095 0.51708,-10.36963 0.70255,-11.50211 1.93662,-11.82483 0.75062,-0.19629 1.36477,-0.78674 1.36477,-1.3121 0,-1.15376 2.06588,-1.42491 18.7849,-2.46553 12.82796,-0.79844 61.44766,-2.19321 84.53204,-2.425 l 12.64369,-0.12695 0.13034,2.52874 c 0.11573,2.24543 0.45497,9.93249 2.11236,47.86537 0.38827,8.88635 0.56992,9.93432 1.72194,9.93432 2.16753,0 3.81819,3.351 3.33088,6.762 -0.23507,1.64543 -0.63381,5.71368 -0.88609,9.04055 -0.43278,5.7072 -0.57643,6.11529 -2.54326,7.22496 l -2.08457,1.17611 0.25883,20.22989 c 0.14237,11.12644 0.66553,35.83581 1.16259,54.90971 0.49707,19.07389 0.73206,41.5522 0.52221,49.95179 l -0.38154,15.27197 2.12125,0.42426 c 2.08258,0.41651 2.12044,0.50694 2.07581,4.95791 -0.025,2.49352 -0.30729,7.27715 -0.62731,10.6303 -0.50674,5.30967 -0.82728,6.30776 -2.48328,7.73218 l -1.90143,1.63554 0,24.55249 c 0,13.80134 -0.3013,25.34498 -0.68809,26.36231 -0.46945,1.23475 -1.5599,2.05191 -3.43185,2.57174 -3.10338,0.86178 -17.81474,0.8349 -31.28237,-0.0571 l 0,-2e-5 z m 24.34297,-3.24689 6.50255,-0.46156 0.49181,-18.86522 c 0.27048,-10.37586 0.27244,-21.71003 0.004,-25.18704 l -0.48748,-6.32184 -2.53324,0 -2.53324,0 0.49509,-10.97145 c 0.27506,-6.0956 0.84537,-11.39352 1.28329,-11.92119 0.43352,-0.52235 1.52742,-0.94974 2.43089,-0.94974 1.60825,0 1.65352,-0.21742 2.16162,-10.38135 0.28543,-5.70975 0.1006,-28.06197 -0.41075,-49.67161 -0.51134,-21.60964 -1.0458,-48.63755 -1.18768,-60.06202 l -0.25798,-20.77176 -1.75948,0 c -2.9868,0 -3.4615,-2.06439 -2.88732,-12.55644 0.28533,-5.21383 0.81838,-10.04866 1.18455,-10.74406 0.36618,-0.69541 1.41406,-1.26437 2.32861,-1.26437 l 1.66284,0 -0.26384,-9.57308 c -0.14511,-5.26519 -0.5806,-15.42529 -0.96774,-22.578 -0.38716,-7.15271 -0.70302,-15.5521 -0.70192,-18.66531 l 0.002,-5.66038 -20.77177,0.49843 c -11.42447,0.27414 -25.64861,0.57647 -31.6092,0.67185 -11.9561,0.19131 -23.30803,0.70241 -44.16728,1.98854 l -13.82245,0.85227 -0.50228,4.73858 c -0.27625,2.60622 -0.64457,26.84696 -0.81849,53.86831 -0.30465,47.33505 0.26631,76.21583 1.97826,100.06572 0.44211,6.15928 0.8914,30.05584 0.99841,53.10347 0.11263,24.25736 0.52414,44.64316 0.97714,48.40724 0.4304,3.57635 0.79116,10.07882 0.80167,14.44992 0.0105,4.3711 0.21926,9.61311 0.46387,11.64889 l 0.44475,3.70144 32.96441,0.45324 c 18.13043,0.24928 38.32896,0.89428 44.88561,1.43334 15.28086,1.25632 15.87903,1.27468 23.62047,0.72518 z"
       id="path4981"
       inkscape:connector-curvature="0"
       inkscape:export-xdpi="300"
       inkscape:export-ydpi="300" />
    <path
       style="opacity:1;fill:#000000;fill-opacity:1;fill-rule:nonzero;stroke:none;stroke-width:5.9000001;stroke-miterlimit:4;stroke-dasharray:none;stroke-opacity:1"
       d="m 356.97272,334.27737 c 0,-1.74844 0.35732,-2.14864 2.2578,-2.52873 2.90244,-0.58049 11.77602,-0.57285 26.8879,0.0231 10.49038,0.41373 12.03658,0.62719 12.03658,1.66174 0,2.76589 -1.13959,2.92102 -21.45813,2.92102 l -19.72415,0 0,-2.07718 z"
       id="path4983"
       inkscape:connector-curvature="0"
       inkscape:export-xdpi="300"
       inkscape:export-ydpi="300" />
    <path
       style="opacity:1;fill:#000000;fill-opacity:1;fill-rule:nonzero;stroke:none;stroke-width:5.9000001;stroke-miterlimit:4;stroke-dasharray:none;stroke-opacity:1"
       d="m 373.95138,347.93499 -16.61741,-0.38175 0,-1.80624 c 0,-1.64242 0.36041,-1.8551 3.97373,-2.34498 3.90918,-0.52999 30.6008,-0.0617 33.77669,0.59261 3.59868,0.7414 0.99355,4.84935 -2.84248,4.48223 -0.92022,-0.0881 -9.15095,-0.3319 -18.29053,-0.54187 z"
       id="path4985"
       inkscape:connector-curvature="0"
       inkscape:export-xdpi="300"
       inkscape:export-ydpi="300" />
    <path
       style="opacity:1;fill:#000000;fill-opacity:1;fill-rule:nonzero;stroke:none;stroke-width:5.9000001;stroke-miterlimit:4;stroke-dasharray:none;stroke-opacity:1"
       d="m 358.88102,359.31214 c -0.73861,-0.55933 -1.2263,-1.61427 -1.08374,-2.34431 0.24364,-1.24774 1.44646,-1.33099 20.05486,-1.38809 17.93031,-0.055 19.86911,0.0557 20.5749,1.17459 1.68815,2.67628 -0.15703,2.98579 -19.59356,3.28668 -15.21366,0.23552 -18.85458,0.10252 -19.95246,-0.72887 z"
       id="path4987"
       inkscape:connector-curvature="0"
       inkscape:export-xdpi="300"
       inkscape:export-ydpi="300" />
    <path
       style="opacity:1;fill:#000000;fill-opacity:1;fill-rule:nonzero;stroke:none;stroke-width:5.9000001;stroke-miterlimit:4;stroke-dasharray:none;stroke-opacity:1"
       d="m 333.49159,471.06204 c -1.58949,-0.56317 -2.96923,-1.02884 -3.06608,-1.03482 -0.0969,-0.006 -1.1535,-1.36016 -2.34811,-3.00927 -2.71591,-3.74921 -2.81824,-7.04289 -0.3688,-11.87096 0.99177,-1.95487 1.80457,-4.58979 1.80624,-5.85538 0.007,-5.09944 2.69168,-8.87187 7.66676,-10.77186 4.52188,-1.72693 6.56967,-0.9664 8.37264,3.10953 1.17804,2.66314 1.40469,4.304 1.10693,8.01351 -0.25115,3.12885 -0.0426,5.45897 0.63358,7.07718 2.24031,5.36181 0.28009,10.84013 -4.77196,13.33641 -3.84845,1.90156 -5.86791,2.12644 -9.0312,1.00566 z m 7.84196,-5.70743 c 3.6122,-3.34767 1.64175,-11.23319 -2.80696,-11.23319 -4.86983,0 -8.28623,3.09569 -8.28623,7.50835 0,5.07716 7.07182,7.45171 11.09319,3.72484 z m -1.48659,-14.90159 c 1.18514,0.45059 2.06121,0.46589 2.32405,0.0406 0.61341,-0.99251 -0.36414,-5.85684 -1.56021,-7.76374 -0.87735,-1.39875 -1.26102,-1.51824 -2.62827,-0.81856 -2.60076,1.33093 -4.09648,3.72093 -4.11363,6.57317 -0.0158,2.62143 0.0225,2.65834 2.02991,1.95855 1.35274,-0.47157 2.69049,-0.46819 3.94815,0.01 z"
       id="path4991"
       inkscape:connector-curvature="0"
       inkscape:export-xdpi="300"
       inkscape:export-ydpi="300" />
    <path
       style="opacity:1;fill:#999999;fill-opacity:1;fill-rule:nonzero;stroke:none;stroke-width:5.9000001;stroke-miterlimit:4;stroke-dasharray:none;stroke-opacity:1"
       d="m 402.25517,600.70347 c -7.15271,-0.53002 -27.95313,-1.21107 -46.22316,-1.51344 l -33.21823,-0.54978 -0.5128,-1.80624 c -1.04138,-3.66808 -2.16621,-36.31389 -2.82547,-82.00331 -0.3727,-25.82924 -1.0162,-51.02629 -1.43,-55.99345 -0.98048,-11.76934 -1.66827,-115.98779 -0.8907,-134.96263 0.429,-10.46847 0.86165,-14.82807 1.51143,-15.22966 1.77317,-1.09588 39.96535,-2.77591 91.95791,-4.04512 l 17.76142,-0.43358 0.91848,23.69015 c 1.38448,35.70953 1.43736,32.91155 -0.63158,33.41779 -2.21034,0.54084 -2.57982,1.91969 -3.21556,12.00004 -0.57923,9.18422 0.0264,11.8684 2.678,11.8684 l 1.71187,0 0.4661,21.85551 c 1.60223,75.1285 2.00815,106.35436 1.45788,112.14797 -0.55714,5.86588 -0.78476,6.567 -2.39156,7.36647 -2.4721,1.22999 -2.76734,2.42652 -3.34451,13.55427 l -0.50856,9.8049 2.53447,0 2.53446,0 0.5129,6.32117 c 0.73303,9.03431 -0.31355,44.31702 -1.32348,44.61752 -2.60872,0.77622 -16.32985,0.72289 -27.52931,-0.10698 z M 342.81498,469.56508 c 3.81424,-1.91041 5.17674,-4.88472 4.55475,-9.94289 -0.27298,-2.2199 -0.71523,-7.02139 -0.98279,-10.66998 -0.75039,-10.23288 -4.05341,-13.19555 -10.53348,-9.44812 -3.64076,2.10545 -5.42866,4.57028 -5.91275,8.15141 -0.21361,1.58017 -1.22161,5.04135 -2.23999,7.6915 -2.24711,5.84765 -1.92621,8.65833 1.41469,12.39084 3.71307,4.14829 7.93985,4.71206 13.69957,1.82724 z M 397.7068,358.74117 c 0.86422,-0.50024 1.0336,-1.03308 0.56783,-1.78626 -0.92666,-1.49847 -38.40415,-1.61276 -39.87525,-0.1216 -0.77159,0.7821 -0.68138,1.14679 0.50603,2.04585 1.22357,0.92644 4.21271,1.05431 19.50739,0.83449 10.04159,-0.14431 18.60931,-0.57616 19.294,-0.97248 z m -2.04784,-11.78723 c 0.99933,-1.10425 1.04397,-1.48247 0.25248,-2.13935 -1.19595,-0.99255 -28.09838,-1.9989 -33.93543,-1.26943 -3.7607,0.46998 -4.15435,0.68366 -4.15435,2.25508 l 0,1.73591 11.37932,0.21869 c 6.25862,0.12028 14.49887,0.29109 18.31167,0.37959 5.96302,0.13841 7.10211,-0.0267 8.14631,-1.18049 z m 1.89436,-12.37565 c 0.45999,-0.74517 0.31033,-1.27049 -0.48948,-1.71809 -1.38811,-0.77683 -35.35536,-1.58911 -38.0605,-0.91017 -1.42859,0.35856 -1.90417,0.93377 -1.90417,2.30307 l 0,1.82515 19.89578,-0.2133 c 16.65959,-0.1786 20.00356,-0.38789 20.55837,-1.28666 z"
       id="path4993"
       inkscape:connector-curvature="0"
       inkscape:export-xdpi="300"
       inkscape:export-ydpi="300" />
    <path
       style="opacity:1;fill:#666666;fill-opacity:1;fill-rule:nonzero;stroke:none;stroke-width:5.9000001;stroke-miterlimit:4;stroke-dasharray:none;stroke-opacity:1"
       d="m 308.36498,616.16078 c -0.83383,-2.67422 -1.13794,-12.67598 -1.80686,-59.42531 -0.92403,-64.57822 -1.79517,-88.25838 -4.13305,-112.34815 -1.84034,-18.96315 -1.85756,-19.74348 -1.80117,-81.64206 0.0313,-34.37275 0.2631,-63.71937 0.51509,-65.2147 0.25199,-1.49532 0.99957,-3.00853 1.66129,-3.36267 0.66172,-0.35414 12.09303,-1.00697 25.4029,-1.45073 13.30987,-0.44376 37.04213,-1.27167 52.73836,-1.83982 15.69623,-0.56814 35.40509,-1.24794 43.79748,-1.51068 l 15.25888,-0.47769 0.4577,3.15145 c 0.25173,1.7333 1.09919,33.38791 1.88325,70.34359 0.78407,36.95568 1.80406,78.89658 2.26666,93.202 0.87253,26.9829 0.53699,159.16559 -0.40793,160.6945 -0.75164,1.21618 -135.45308,1.09745 -135.8326,-0.11973 z m 124.57685,-13.20479 c 1.39355,-1.39496 1.48503,-2.65987 1.93322,-26.73236 0.46025,-24.71967 0.50536,-25.31014 2.07869,-27.2039 1.76969,-2.13014 2.44544,-6.09473 2.63465,-15.45753 0.12754,-6.31105 -0.23396,-7.53281 -2.22881,-7.53281 -1.22663,0 -1.32157,-2.264 -1.7648,-42.0854 -0.25763,-23.14697 -0.67625,-54.93599 -0.93026,-70.64227 l -0.46184,-28.55688 1.81693,-0.82785 c 2.09031,-0.95241 2.43234,-2.31914 3.14358,-12.56152 0.49697,-7.15684 -0.14033,-10.0552 -2.21098,-10.0552 -0.55863,0 -1.23075,-0.34798 -1.4936,-0.77328 -0.26285,-0.4253 -1.08436,-13.96162 -1.8256,-30.08072 -0.74122,-16.1191 -1.47866,-29.43842 -1.63874,-29.59851 -0.85936,-0.85936 -95.57137,2.08613 -108.26163,3.36688 -8.72188,0.88024 -9.29269,1.52595 -10.17169,11.50642 -1.02233,11.6079 -0.0977,126.14503 1.22247,151.42489 0.61869,11.84753 1.10269,34.21843 1.11381,51.48062 0.0108,16.79053 0.3513,36.29792 0.75665,43.34977 1.70388,29.64239 2.14391,35.3385 2.89681,37.49827 l 0.79263,2.27374 9.52735,0.4283 c 5.24004,0.23556 24.31042,0.77252 42.37863,1.19323 18.06821,0.42072 33.02196,0.93561 33.23056,1.1442 0.2086,0.20861 6.14376,0.27283 13.18923,0.14271 11.72665,-0.21657 12.93367,-0.3604 14.27274,-1.7008 z"
       id="path4995"
       inkscape:connector-curvature="0"
       inkscape:export-xdpi="300"
       inkscape:export-ydpi="300" />
    <path
       style="opacity:1;fill:#999999;fill-opacity:1;fill-rule:nonzero;stroke:none;stroke-width:5.9000001;stroke-miterlimit:4;stroke-dasharray:none;stroke-opacity:1"
       d="m 333.97929,448.08591 c 0,-2.79551 2.93896,-6.58857 5.10499,-6.58857 1.42301,0 2.93263,3.22296 3.09236,6.60201 l 0.11135,2.35581 -4.15435,0.0833 -4.15435,0.0833 0,-2.53577 z"
       id="path4997"
       inkscape:connector-curvature="0"
       inkscape:export-xdpi="300"
       inkscape:export-ydpi="300" />
    <path
       style="opacity:1;fill:#ffffff;fill-opacity:1;fill-rule:nonzero;stroke:none;stroke-width:5.9000001;stroke-miterlimit:4;stroke-dasharray:none;stroke-opacity:1"
       d="m 333.61804,466.67291 c -5.23909,-2.86556 -3.94099,-10.15466 2.16744,-12.17063 3.22637,-1.06479 5.16761,-0.41394 6.51044,2.1828 2.09752,4.05617 1.11405,7.85052 -2.5222,9.7309 -2.47262,1.27864 -4.15901,1.34903 -6.15568,0.25693 z"
       id="path4999"
       inkscape:connector-curvature="0"
       inkscape:export-xdpi="300"
       inkscape:export-ydpi="300" />
  </g>
</svg>
